<svg xmlns="http://www.w3.org/2000/svg" viewBox="0 0 400 400">
  <defs>
    <filter id="a" width="1.019" height="1.019" x="-.009" y="-.01" color-interpolation-filters="sRGB">
      <feGaussianBlur stdDeviation="1.445"/>
    </filter>
  </defs>
  <path stroke="#3c3c3c" stroke-linejoin="miter" stroke-width="5" d="m302.486 284.255-20.298 88.935L200 333.61l-82.188 39.58-20.298-88.935-82.188-39.579 56.876-71.32-20.299-88.934h91.221L200 13.102l56.876 71.32h91.22l-20.298 88.934 56.876 71.32z" filter="url(#a)"/>
  <path fill="#f44" stroke="#000" stroke-linejoin="miter" stroke-width="5" d="m302.486 284.255-20.298 88.935L200 333.61l-82.188 39.58-20.298-88.935-82.188-39.579 56.876-71.32-20.299-88.934h91.221L200 13.102l56.876 71.32h91.22l-20.298 88.934 56.876 71.32z"/>
  <path fill="none" stroke="#000" stroke-linejoin="round" stroke-width="5" d="M327.798 173.356 143.124 84.422l-45.61 199.833h204.972l-45.61-199.833-184.674 88.934L200 333.61Z"/>
  <g>
    <path fill="#fff" d="M185.066 153.81c-1.74-3.263 2.263-4.672 5.827-6.667 1.973-2.276 4.515-3.272 6.25-3.17l12.232 2.991-3.482 1.518 6.562 9.554h-2.812l1.74 14.91-3.124-2.5-.625 6.518 4.241 3.482c4.876-2.967 9.648-3.905 14.286-2.232-.048-2.61 0-5.188 2.053-7.098-1.997-1.921-5.046-2.928-4.509-7.053 3.782-10.256 13.424-9.174 15.893-20.938 5.091-.308 5.899 3.178 4.956 7.366l-10.938 12.366 3.17.491c4.982-3.221 10.384-6.213 12.857-10.803 2.557.33 3.804 4.636 1.295 9.732l-11.786 7.187-1.697 2.099 2.545 1.25 15.09-6.117c1.066 2.387 2.01 4.798.044 7.768-5.423 2.909-10.543 3.618-15.491 3.08l-.313 2.411 17.01 2.322c1.373 3.707-2.764 6.451-6.876 6.875l-12.143-4.33-1.026 1.74c6.112 3.709 10.248 9.161 18.348 11.117.69 4.745-3.748 6.473-8.393 4.732l-13.616-13.036.09 2.054c5.625 8.188 8.524 17.863 17.633 24.151-1.317 3.692-4.394 5.42-11.696-.982l-11.741-21.696-.849.848c2.952 9.792 3.647 19.855 9.241 29.33-2.083 3.96-8.975-.968-11.473-7.544l-3.393-22.098-1.785-.18.937 20c-3.416-1.286-5.85-4.224-6.652-9.91l-.848-10.759-3.125 12.456 10.804 18.973-2.366.937 13.393 11.92 6.562-7.054c2.16.646 4.8.238 6.429 2.054l-3.036.759c-.034 1.317.807 3.31-2.723 1.92l-4.51 3.303c3.607 1.517 7.033 1.04 10.403-.044l.982 1.875 2.723 3.482-3.393-1.474-2.232 1.875-1.697-1.92-7.99-.937 4.107 4.107 3.66 1.563-.044 6.875-2.143-3.438-2.545.268-1.205-2.321-5.804-7.054-3.303 2.099c-.717 1.74-1.224 3.969-3.661 1.696l-2.054 2.143.402-5c2.464-.676 5.33-.902 5.982-3.616l-11.25-12.01-.893 2.68-7.901-11.072c-1.248 7.768-4.964 16.44-1.786 22.59 3.031 2.163 5.479 2.853 6.027-1.25 2.668.228 3.64 1.825 3.214 4.553 5.234 2.713-1.247 5.03-4.241 7.187 15.904 1.88 18.648 3.966 18.214 9.956-2.603-2.537-4.7-4.222-6.473-3.795-3.305 8.109-12.574 2.03-18.527-3.66l5.134 10.133-4.375-1.027-3.616 10.938-3.84-10.223-4.82.357 5.178-9.152c-10.278 6.24-18.365 9.184-18.705 2.41l-5.625 4.51c-1.099-11.059 14.283-8.79 19.24-10.58-2.805-1.046-5.851-1.352-6.026-5.715l1.74-4.286 1.474-2.276c1.362 1.634.109 5.492 5.76 3.482 5.461-7.02 1.6-16.37.446-25.045l-8.572 12.322-1.25-2.233-11.428 11.965 6.339 3.214v5.312l-1.206-1.875-7.5-5.223-6.473 6.965c-1.13 2.406-2.262 2.09-3.393 1.83l-1.964 3.393c-1.363-2.894-.42-5.129.67-7.322 2.77-.912 5.51-1.932 7.812-4.598l-8.259 1.16c-1.52 1.941-2.663 1.235-3.839.76l-2.009.982c-.848-1.28.376-2.56 1.875-3.84 1.724-2.452 3.298-.866 4.91-.312l6.34-1.295-4.196-3.303c-2.015-.132-3.03-.731-3.26-1.697l-2.41-1.16c1.2-1.615 3.174-1.158 5.625-1.295l7.321 6.16 12.634-12.097-2.009-1.161 11.384-17.857-3.571-14.286-1.295 15c-1.18 2.398-2.305 4.849-5.803 5.045l.982-18.706-2.322 1.384-4.732 23.304c-4.172 5.11-7.83 8.435-10.937 5.268 5.35-7.716 6.985-18.776 10.223-28.393l-1.116-.491-13.571 22.053c-4.8 3.414-9.206 4.885-12.233-.446 9.337-4.843 14.056-15.842 20.491-24.554l-1.74-.089-12.858 10.982c-6.827 1.645-7.979-.463-8.348-3.75l18.304-10.625-2.5-1.83-12.188 3.928c-4.318-2.305-4.666-5.096-4.152-7.99 4.857 2.117 10.11-.721 15.179-1.25l.982-2.545-13.437-1.161c-3.337-3.32-4.01-5.46-2.233-8.304l16.027 4.777-.134-2.544-12.277-8.26c-.772-3.86-2.451-7.75.893-9.553 3.203 5.252 8.705 8.46 13.974 11.875l2.723-1.696c-5.193-3.832-9.606-8.064-10.67-14.018-.43-6.396 2.448-5.124 4.464-5.848.894 7.793 7.98 11.926 13.84 16.785 3.407 5.053 3.818 9.078-2.634 10.804l2.5 8.794c4.736-2.813 9.194-1.653 14.285 1.34l6.206-3.929 4.42-5.178-1.34-.268 2.322-5.67-5.536-2.41 3.393-2.099c-10.163.675-15.31 2.266-16.072-2.187l17.099.312-6.474-5.312z"/>
    <path d="M256.99 183.004c.122 4.923-2.7 6.239-7.48 6.629-2.54.173-8.925-2.95-9.008-2.977-1.425-.474-2.376-1.245-3.612-.863.913.733 1.934 1.303 2.9 1.957.862.46 3.37 2.648 4.323 3.24 2.437 1.572 2.14 2.182 6.96 4.997 2.296.879 3.124.346 4.025.808 1.44 1.879.034 6.6-5.076 7.017-3.808-.445-5.612-2.287-7.243-3.554-1.594-1.212-8.071-9.116-9.526-9.638.138.546.525.967.865 1.397 2.53 2.856 5.865 10.474 7.18 11.804.123.23 4.096 6.676 6.423 8.793 2.66 2.492 2.81 1.841 3.884 2.525-.683 3.915-4.57 5.905-9.387 3.107-7.183-3.619-11.414-19.498-15.182-23.936.293 1.556 2.273 5.523 3.403 13.254.906 4.046 2.583 12.688 5.666 15.38-.062.627-.507 1.1-.897 1.554-.245.303-.66.313-.997.446-.31.108-.612.322-.956.257-4.153-.386-5.823-2.28-7.425-4.747-1.823-2.354-3.481-8.797-4.013-11.73-1.166-8.147-.922-12.384-1.919-14.466a7.516 7.516 0 0 0-.468-.043c.047.901.159 1.797.14 2.701.196 1.687-.033 3.382.05 5.07-.095 2.392.287 4.77.318 7.156.111 1.596.485 3.15.848 4.703-.756.206-3.475-.251-4.897-1.917-1.705-1.607-3.315-4.892-3.45-7.206-.03-1.545-.586-.488-.377-5.076.178-1.406.042-4.76-.029-4.98-.19.699-2.373 9.266-2.3 10.273.435 1.003 1.048 1.913 1.524 2.895 1.843 3.338.28 1.206 4.9 9.289 1.38 2.783 4.418 5.472 5.233 7.016a7.773 7.773 0 0 0-2.061.968c1.564 2.184 7.66 8.65 10.314 10.26 1.644-.002 3.07-.983 4.24-2.048 1.062-.989.972-2.489 2.976-3.907 1.111-.783 2.442.182 2.883.133 1.335-.077 2.808.193 3.793 1.165.709.94 1.214 2.077 1.27 3.264-.906.115-1.125-1.747-3.277-.79.076.781-.028 1.76-.764 2.208-.855.668-2.028.314-2.965.03-.85.972-2.03 1.551-3.117 2.21 6.035 1.827 7.095-.912 8.55-.763 1.955.12 1.823 1.83 1.976 2.176.314.27 2.133.64 2.634 3.518.265 1.172.324 2.424.013 3.593-.123-.227-1.237-3.023-3.296-3.42-.465.12-.582.693-.968.938-.66.587-1.641.774-2.442.374-.64-.24-.818-.955-1.194-1.456-.856-.016-1.728.083-2.565-.144-.782-.216-1.606-.228-2.379-.483-.44-.123-.877-.26-1.33-.316.49.536 1.08.967 1.544 1.53.529.667 1.387.948 2.202 1.056 1.775-.009 3.244 1.111 3.077 2.975 1.704 5.063-1.14 7.137-2.122 8.301-.098.14-.268.173-.417.227.059-1.314.805-2.753-.421-5.19-1.237.896-3.602.363-3.872-2.563-1.114-1.018-3.273-2.857-5.382-6.506-1.635 1.42-.974 1.104-2.875 2.109-.18.505-.16 1.112-.57 1.508-.51.549-.41.594-1.864.935-.613-.15-1.199-.391-1.701-.776-.698 2.16-.101 2.784-.007 3.788-.255.017-.539.058-.71-.176-.438-.513-1.04-.884-1.36-1.492-.453-.8-.76-1.83-.844-2.852-.122-1.476.219-2.93 1.246-3.625 1.733-.84 4.42-.383 5.467-2.725-10.311-9.75-6.215-6.045-8.613-8.473-.645-.604-1.128-1.352-1.756-1.97a8.79 8.79 0 0 1-.937 2.59c-1.019-.852-1.38-2.18-2.094-3.254-1.267-1.98-2.846-3.733-4.32-5.556-.586-.698-1.013-1.51-1.604-2.2a23.832 23.832 0 0 0-.814 3.428c-.391 3.307-1.197 6.554-1.57 9.864-.393 2.572.07 8.118 2.619 8.61.683.167 1.416.356 2.108.123.616-.293 1.2-.89 1.105-1.626.038-.687-.6-1.095-.792-1.7.082-.752 2.265-.272 2.958.028 2.016 1.066 3.112 3.514 2.431 4.859.445.058.999-.002 1.308.388.33.386.522.861.597 1.359.065.43.043.877-.053 1.297-.13.747-.56 1.385-.938 2.025-1.458 1.9-3.38 2.274-4.26 2.593 3.23.934 8.304-.03 12.003 1.5.845.23 1.494.845 2.238 1.273.647.377 1.083 1 1.61 1.513 3.03 2.962 1.671 9.437.303 9.872-.075-1.22.015-2.563-.704-3.623-.593-.953-1.784-3.483-4.845-3.486.054.69-.151 1.403-.662 1.888-.412.511-1.05.718-1.616 1.004-.714.375-1.538.39-2.322.474-3.468.235-5.745-.225-8.988-2.255-.606-.477-1.26-.892-1.823-1.42-.605-.526-1.07-1.2-1.742-1.653.531 1.64 1.859 4.21 5.074 7.727-.567.794-1.633.91-2.528 1.004-1.369.108-2.496-.772-3.629-1.393.02.554.258 2.591-.324 4.608-.396 1.703-1.976 5.14-3.22 6.348-.647-.582-1.085-1.347-1.599-2.04-3.049-5.165-2.393-6.994-2.304-8.552-1.237.695-2.928 2.494-5.96.551-.339-.19-.408-.598-.57-.918 1.052-.708 2.077-1.543 2.697-2.67.854-1.17 2.508-3.604 2.859-5-.997.823-1.925 2.819-7.77 4.755-3.703 1.375-5.949.911-6.436.858-1.266.103-3.096-.69-3.488-1.883-.171-.464-.02-.962-.063-1.438-.38.033-.724.2-1 .461-.554.49-1.246.827-1.721 1.402-.686 1.161-1.949 2.535-.738 5.313-.366-.198-.751-.362-1.103-.583-.78-.997-1.433-2.143-1.614-3.412-.124-.926.217-3.397 1.075-4.753 1.327-2.375 3.896-3.91 6.632-4.66 2.102-.577 4.302-.693 6.113-.372 1.262.306 4.238.09 4.771-.224-.233-.08-2.607-.472-4.045-2.627-.713-1.09-1.91-2.291-1.117-4.216.323-.328.77-.479 1.164-.699-.6-2.277.63-4.105 2.537-5.487 1.046-.683 1.135-.459 1.948-.396-.245.683-.535 1.365-.602 2.096-.033 2.456 3.303 2.919 4.798 1.333 1.056-1.206.91-.785 1.545-3.03.824-3.72-.674-17.055-1.67-19.432-3.173 4.968-6.55 7.834-7.471 12.42-.002.212-.343.266-.46.133-.726-.66-1.039-1.614-1.407-2.492-.003.002-9.497 8.975-10.587 9.935 1.379 2.023 3.908 1.703 4.75 1.98.49.26.891.663 1.276 1.058 1.132 2.24.675 6.04-2.047 7.771l-.028.002c-.228 0-.147-.325-.085-.465.273-.64.312-2.173-.255-3.462-1.244.525-2.542.01-3.081-1.645-.056-.305-.402-.305-.636-.389-1.222-.367-2.234-1.197-3.148-2.058-.657.597-.514.664-2.466 3.035-.327.406-.771.699-1.098 1.107-1.446 1.757-1.471 1.184-2.586 2.358-.325.664-.278 1.585-.972 2.023-1.41 1.17-2.654.127-2.864.217-.974 1.718-.712 1.824-.882 2.915-.11.53.499 1.026.113 1.518-1.757-1.436-1.643-1.693-2.095-3.27-.843-2.864.843-5.325 1.054-5.778.706-1.422 3.198-1.503 3.645-1.714.949-.504 1.948-.998 2.63-1.859-1.45.244-2.883.699-4.368.645-.444.03-.91-.054-1.339.073-.456.964-1.458 1.716-2.546 1.693-.737.04-1.123-.7-1.59-1.144-.447.228-.898.481-1.222.875-.563.68-1.142 1.348-1.605 2.104-.83-1.32-.722-4.531 1.515-6.413l.217-.158c1.292-.459.626-2.663 3.882-2.027.683.162 1.13.823 1.84.913 1.326.22 4.396-.303 5.105-.543-1.017-.435-1.84-1.186-2.63-1.937-.556-.496-1.23.291-1.842.027-.642-.246-1.449-.41-1.776-1.087-.262-.388-.356-.92-.782-1.173-.618-.143-1.258-.076-1.881-.004-.696.316-1.34.73-1.952 1.182-.1-1.134.498-2.162 1.138-3.045.8-.833 1.874-1.334 2.942-1.73.404-.174.85-.108 1.274-.173 1.447-1.248 3.426-.472 4.252.607.567.758.685 3.44 5.456 4.98.854-.199 9.294-7.71 11.014-10.59-.507-.32-1.227-.327-1.553-.884 6.516-7.515 7.935-13.22 11.952-18.28l-2.864-12.471c-.715 4.571.932 8.505-.667 14.035-.971 2.854-4.215 5.415-7.463 4.89-.194-.139-.282-.412-.126-.611 1.492-2.62.451-6.568 1.292-17.76-.311.183-.694.285-.945.549-.147 2.539-2.127 21.532-6.818 25.93-.521.64-.948 1.375-1.617 1.883-.58.41-.997 1.03-1.653 1.332-2.855 1.414-3.62 1.618-6.332.688-.53-.232-.899-.712-1.14-1.225 1.152-2.153 1.996-1.007 5.074-8.86 4.27-13.317 1.425-6.4 5.754-19.704a12.383 12.383 0 0 0-.455-.037c-.12.277-8.978 17.596-11.117 19.507-.443.386-3.866 4.618-6.73 5.342-2.662.568-.86.48-3.557.236-1.686-.297-3.911-.614-4.837-3.783-.039-.266-.216-.663.098-.825.508-.232 1.101-.282 1.526-.68 3.347-1.716 7.689-6.89 9.743-10.033 3.167-5.68 8.833-12.783 8.833-12.783-.544.024-.865.534-1.263.84-2.441 1.625-8.444 10.27-15.532 10.702-.986-.088-3.181.023-4.798-2.304-.72-.756-1.269-1.783-1.443-4.15.283.007 2.913.454 6.508-1.822 5.21-3.356 7.853-5.872 10.95-7.667-.263-.174-.48-.47-.8-.528-1.183.521-2.44.868-3.583 1.487-1.817.74-3.64 1.57-5.61 1.787-3.433.611-3.79.05-5.24-.562-1.311-.57-2.346-2.525-2.636-3.235-.686-1.914-.16-5.11 1.166-4.936 2.933 1.447 4.454.544 7.792-.056 2.174-.603 4.425-.828 6.63-1.29.1-.486.257-.957.547-1.365-5.25-.293-12.764 1.31-15.898-4.804-1.21-2.513.012-6.305 1.122-7.031.265 0 .61-.065.797.174.497.586 1.317 1.886 3.813 2.69 2.175.717 9.271 2.062 10.694 2.284a3.106 3.106 0 0 1-.083-1.395c-3.304-1.859-8.19-3.537-10.654-6.308-3.01-3.37-3.501-7.647-2.007-9.96.316-.437.397-1.028.848-1.363.434-.355.866-.9 1.497-.756.633-.067.915.63 1.163 1.092 2.713 5.95 9.74 8.716 12.772 10.656.43-.223.888-.375 1.341-.537-.04-.178-.002-.404-.173-.52-.353-.291-2.557-1.589-3.399-2.34-.883-.664-1.6-1.521-2.486-2.182-.245-.37-4.343-4.631-4.458-8.161-.032-.876-.372-1.744-.174-2.62.144-.725.223-1.483.59-2.139 1.336-2.375 4.292-3.895 6.226-2.013.307.383-.045.843-.054 1.267-.401 5.806 7.545 10.35 8.34 11.132 1.487 1.124 6.967 3.47 7.455 8.627.375 4.418-2.332 5.983-5.215 7.109 1.194 1.585 2.52 3.245 2.01 7.344.408-.198 3.227-2.184 6.618-1.591 3.092.356 5.194 2.45 8.202 2.808.456-.477.83-1.027 1.304-1.488 1.947-1.966 3.264-1.848 3.895-2.05-.02.132-.037.266-.054.4.073-.01.218-.033.291-.045.25-.43.432-.893.63-1.348.602-1.177 1.677-1.991 2.487-3.008-.26.058-.508.149-.767.205-.61-.109-1.197-.322-1.76-.577-.007-.08-.026-.237-.035-.316 1.388-.837 3.95-2.32 3.597-3.928-.142-.907-.413-1.984-1.313-2.42-.496-.202-.989-.446-1.52-.53-1.237-.05-2.466-.234-3.707-.148.465-2.007 3.507-2.338 4.291-2.803-4.367-.775-9.608 3.777-13.907-.407-.15-.255-1.794-2.257-1.682-3.254.023-.514-.128-1.085.252-1.512 3.902 4.628 9.262.604 16.052 2.32-.194-.49-.424-.98-.818-1.343-3.036-2.904-3.252-2.126-4.564-2.185-.866-.6-1.831-1.22-2.933-1.15-1.2.187-1.792.442-2.545 2.269-.486-.932-.753-1.968-.93-2.997.387-2.718.368-3.016 2.314-4.57.452-.378 1.093-.329 1.582-.628.288-.18.313-.552.49-.812.52-.484 1.185-.917 1.932-.751.276-.53.616-1.055 1.134-1.378 8.504-5.325 16.757 4.158 19.185-.836.945 1.118.252 3.444-3.466 4.51 3.024 3.292 4.207 8.314 6.593 10.212-.438.604-1.233.802-1.942.712-.61-.204-1.156-.554-1.749-.796.007.688.272 1.33.421 1.994.229.848.805 5.436.787 7.55-.002.75.102 1.496.321 2.212.216 2.335 1.111 2.756 1.4 3.42-.384.072-.782.17-1.164.043-2.256-.743-1.998-.905-3.174-1.709.017 1.468-.6 2.845-.656 4.303 2.547.602 3.14 2.297 3.553 3.045.986-.531 7.063-5.274 13.95-2.468-.153-.903-.881-3.06 1.464-5.879a9.008 9.008 0 0 1-.047-.144c-4.67-2.583-5.578-6.351-2.992-10.713 2.625-4.618 16.09-10.512 14.55-17.818 3.972-2.875 10.375 3.207 4.305 11.175-.615.731-1.093 1.572-1.768 2.255-6.5 6.536-3.649 3.55-6.899 6.275 1.56-.165 1.096-.245 2.363.163.545-.473 4.07-2.704 4.463-2.994 6.18-3.988 5.953-5.002 8.23-8.047 1.402-.39 2.158 1.052 2.994 2.105.478.602.473 1.382.629 2.099 1.072 4.483-2.39 7.736-5.712 10.246-2.255 1.577-5.17 2.522-7.57 3.495a6.544 6.544 0 0 1-1.009 1.455c.379.096.741.268 1.128.326 1.643-.13 4.969-.787 9.582-2.498 2.804-1.068 4.056-2.702 4.427-2.988 1.362-.632 1.464.668 2.295 1.662 1.814 2.272.828 8.43-5.175 9.912-5.719 1.392-8.066.725-10.392.74a5.84 5.84 0 0 1-.332 1.223c.781.198 1.6.21 2.376.44 1.79.236 8.68 2.79 12.82.82.734.612 1.388 1.423 1.498 2.405zm-9.109 4.883c4.011 1.225 9.545-1.9 7.176-5.526-2.098.107-.647 1.526-12.47-1.089-1.32-.245-2.674-.705-4.02-.396.47.472 1.154.806 1.36 1.484.184.742-.34 1.375-.526 2.056.136.367.551.557.89.717.294.103 5.523 2.447 7.59 2.754zm5.575 12.984c.799-.743.814-1.898.777-2.91-1.625-.239-1.924.498-6.044-2.073-1.683-1.095-7.021-5.676-9.232-7.15-.548-.36-1.083-.798-1.742-.928-.92 1.78-.583 1.23-2.15 2.148.213.28.465.528.733.756 2.94 2.704 11.341 15.926 17.658 10.157zm-4.061-24.63c8.85-1.857 6.067-9.305 4.6-8.898-.44.335-.74.835-1.227 1.113-1.037.571-2.01 1.262-3.105 1.726-2.173 1.178-8.849 2.425-8.931 2.45-.077.54-.092 1.09-.208 1.624-.281.688-.892 1.157-1.291 1.768.513.315.99.823 1.638.794.083 0 5.976.2 8.524-.576zm2.343-18.27c.151-1.302.108-2.695-.54-3.867-.252-.412-.74-.739-1.235-.68-.537.514-.905 1.17-1.348 1.76-1.445 1.969-5.527 4.862-6.027 5.293-1.545 1.246-3.369 2.063-4.988 3.196-.039 2.132.158 1.008-.45 2.59 1.857.08 1.833.287 2.674 1.742.875-.12 1.55-.753 2.363-1.05 1.779-.707 3.436-1.685 4.973-2.82 2.425-1.806 3.83-2.714 4.578-6.164zm-1.863 58.108c-.704-.574-1.537-.974-2.188-1.613-7.674-7.552-12.37-19.317-15.077-21.949-1.069.625-1.304.872-2.618.535-.71-.18-1.287-.663-1.967-.918-.007.242-.08.507.044.733.787 1.55 1.716 3.021 2.442 4.602 1.305 3.03 6.195 14.265 8.94 16.387.663.507 1.1 1.24 1.75 1.763.976.795 3.226 2.622 4.651 2.581 1.82.117 3.265-.47 4.023-2.121zm-3.376 26.078c-.448-1.118-1.453-2.009-2.606-2.354-.05-.326-.01-.68-.158-.98-.242-.33-.672-.578-1.089-.483-.508.229-.861.796-1.464.79-2.142.164-2.524 1.002-7.735-.399-2.876-1.045-5.762-2.63-7.875-4.882-.214-.228-1.81-1.607-3.124-3.118-2.914-2.938-4.368-5.28-4.951-5.257-.775-.053-1.553-.022-2.329-.017.229.498.536.963.946 1.334.856.749 1.515 1.687 2.307 2.5.877.88.656.94 4.425 4.555.749.729 1.297 1.642 2.103 2.314.567.563 1.395.947 1.696 1.723-.128.521-.302 1.051-.617 1.493-2.155 2.482-2.894 2.136-4.472 2.257-1.799.15-2.27 2.606-1.715 4.03a9.21 9.21 0 0 0 .757-1.586c.181-.354-.286-.75.012-1.067.242-.009.555-.104.73.127.417.44.724 1.023 1.294 1.295.784.175 1.636-.537 1.588-1.347-.045-.68.654-.98 1.15-1.254.695-.3 1.256-.812 1.851-1.263.41-.322.629-.808.96-1.197l.242.01c1.846 1.98 3.037 4.834 5.84 7.232.308.337.755.02 1.133.035.068 1.695-.314 1.682.502 2.888.962-.072.895.114 1.527-1.057.186.011.423-.059.558.12a6.285 6.285 0 0 1 1.442 3.178c.97-2.985-.293-3.283-.28-5.166.05-.48-.476-.625-.823-.768-1.637-.693-1.643.991-5.507-3.24-.94-1.112-1.912-2.21-2.614-3.497.912-.064 3.634 1.202 6.229 1.704.726.106 1.463.105 2.187.223.753.106 1.526-.047 2.273.088.702.613.046 2.181 2.048 1.36.484-.192.587-.763.815-1.171 1.015-.106 1.798.639 2.744.847zm-2.815-92.134c1.224-1.874.463-5.711-2.05-6.327a2.999 2.999 0 0 0-1.278.004c-.404.185-.242.71-.282 1.06.062 1.228-.543 2.338-1.037 3.42-2.145 4.825-8.264 7.411-11.904 11.176-.84.868-1.549 1.8-2.045 2.835-1.477 3.348-.425 6.43 2.835 7.904.547.256 1.26.152 1.672.658-1.343 1.552-3.267 2.667-2.447 7.063.147.866.61 1.629.837 2.47-.19-.095-2.833-2.038-4.75-2.215-1.344-.152-2.716-.295-4.055-.022-.922.193-1.892.238-2.758.64-2.284 1.033-3.606 2.834-6.205 2.945-.263 0-.553.071-.796-.048-.186-.282-.14-.63-.14-.947.44-.02.887-.038 1.318-.146-.292-1.232-1.45-2.021-2.578-2.428-.72-.345-2.783-.123-3.226.057-1.04.408-2.273.736-3.85 3.503-.233.437-.293.992-.727 1.296-.118-.3-.274-.623-.145-.947.656-2.265 2.12-4.168 4.543-5.121.716-.316 1.573-.036 2.246-.49-.192-.703.068-1.406.205-2.093.19-.833.186-1.692.32-2.534.324-2.317-.433-2.981.075-3.708.055.082 1.45 2.573 3.346 3.758-.164-.873-.474-1.71-.618-2.587-.276-2.624.06-4.884-.618-7.304a9.32 9.32 0 0 1-.097-.392c-.21-.918-.3-1.86-.527-2.774-.252-.891-.776-1.672-1.064-2.549-.386-1.166-.97-1.584-.846-2.146 1.98 1.524 2.428 2.851 3.824 3.192-.15-.377-2.417-5.02-4.206-6.816-.617-.68-1.138-1.45-1.837-2.053-.523-.486-1.16-.824-1.676-1.313.738.048 3.092.931 4.402.058-.464-.395-3.366-.704-5.292-1.367-.762-.273-1.58-.294-2.358-.506-.447-.118-.9-.23-1.362-.268a3.796 3.796 0 0 0-.399-.013c-2.227 0-4.602-.293-6.066 1.678-.716.878 1.458 1.343 3.28.539.92-.387 1.908-.615 2.91-.54.082-.008.162-.01.242-.008.865.017 1.64.518 2.267 1.083.27.208.275.571.33.878-.16.054-.323.096-.49.132-.282-.141-.55-.31-.841-.432-.38 1.5-.534 2.784-2.205 3.077-.75.116-1.376-.413-1.923-.846-.521-.401-.67-1.067-.894-1.648-.31-.025-.62.007-.89.169.198.864.89 1.455 1.341 2.182 1.872 2.978 1.904 4.02 3.759 5.602 1.61 1.97 2.085 1.672 1.975 5.233-.41 1.452-1.708.556-3.81.631-.72.12-1.529.024-2.124.528.9.274 1.842.427 2.695.838 2.067 1.008 3.197.96 5.138.617.904-.113 1.67-.64 2.464-1.046.643-.322 1.024-.954 1.516-1.45.123 1.655-2.01 3.37-3.198 3.714-.804.265-1.653.289-2.488.368-.73.055-1.436-.19-2.159-.247.086 2.209.045 2.01-1.216 4.223.83.05 1.457-.532 2.132-.913.075.321-.04.627-.255.867-.825 1.005-1.533 2.103-2.409 3.066-1.152 1.313-2.273 2.695-2.98 4.307-.647 1.737-.849 5.922-.637 7.432-1.165-1.632-.973-5.69-.956-6.53.043-.284-.175-.476-.35-.661-1.24.432-3.498 2.7-3.746 4.577-.231 1.666-.757 3.431.184 7.806.131.657.052 1.34.244 1.988.018.087 1.533 8.506 2.706 11.963.794 3.066-.008.272-5.033 10.3-1.473 2.24-1.107 2.263-4.095 6.712-.514.802-1.234 1.45-1.706 2.281 1.607.847 1.618.395 3.629.513.917.046.562 1.987 1.063 3.449.484-.535.766-1.21 1.164-1.806.873-1.701 3.592-4.801 5.095-7.421.972-1.416 1.466-2.975 2.298-3.452 1.001 1.761 3.23 15.691 2.903 18.375-.402 2.606.446 2.075-.858 6.45-1.357 3.95-7.51 6.025-8.578-.074-.613.337-1.362 1.499-1.168 3.43.08.67.587 1.17.796 1.797-1.243.289-2.086-.468-2.015.727.13 1.13.85 2.11 1.77 2.744 1.04.879 2.462.944 3.76.98 1.517-.116 2.97-.214 5.785-2.766.241.254-.009.545-.142.781-1.135 1.725-1.869 2.44-2.542 2.906-.46.319-.892.52-1.404.852-.803.539-1.761.76-2.634 1.157-2.059.983-5.96.215-8.027.227-1.387.025-2.736.382-4.08.68-2.92 1.072-4.09 1.94-5.154 4.006-.431.86-.47 1.84-.582 2.778.61-.203.645-.952 1.086-1.34.567-.516 1.11-1.068 1.753-1.493 2.412-1.682 6.307-1.132 6.906-.704-.53.27-1.134.283-1.692.463-2.218.6-1.934 1.547-1.958 1.824.5.377 1.009.844 1.667.89 1.74.083 2.18.455 4.93-.18 1.516-.269 4.826-1.834 5.567-2.353 3.017-2.125 2.594-2.06 3.812-3.205 1.348-1.285 1.862-2.574 2.686-3.21.118-.09.242-.168.376-.23.114 4.663-3.973 10.295-4.374 10.964-.44.632-1.204.959-1.592 1.636 1.254.482 2.694.153 3.723-.676.929-.706 1.316-1.852 1.93-2.801.469 1.334-.342 4.255.182 6.633.181.742.184 1.54.558 2.226.68 1.352 1.633 3.957 2.204 2.485 1.488-3.155 2.211-5.361 1.715-8.772-.147-.96-.781-1.948-.328-2.915 1.464 1.758 3.188 4.027 5.389 3.689-.272-.493-2.654-3.015-3.9-7.036-.204-.497-.465-.978-.538-1.518-.161-1.254-1.18-3.013-.95-4.007.253.245 3.235 4.11 3.447 4.423.18.242.442.4.679.58.67.48 1.16 1.175 1.883 1.583 4.052 2.291 8.293 4.376 12.467 1.4-.21-1.58-.644-1.174-2.043-1.745 2.222-.98 4.495-.611 6.058.415.605.388 1.292.685 1.776 1.238.355.405.674.843 1.064 1.22.024-.962.161-.924-.871-2.86-3.028-4.839-10.585-3.454-15.356-4.324-2.443-.227-3.838-1.424-4.545-1.902-1.934-1.311-3.031-3.79-3.119-3.935-.227-.344-.162-.764-.135-1.149.507.366.586 1.044 1.003 1.485 2.704 2.884 5.939 3.599 9.504 1.394 1.211-.722 1.446-2.822 1.149-3.594-1.644-.131-1.158.09-2.12.254-.243-.182-.002-.433.063-.642.607-1.262.966-3.978-1.509-4.605-.215 3.54-4 4.963-6.53 2.068-.503-.586-1.121-1.113-1.423-1.84-1.477-4.81-.257-11.993.841-16.869.36-1.632.436-3.339 1.074-4.9.47-1.18-.832-1.533-1.149-3.992-.058-.241.064-.46.15-.675.412.296.461.844.796 1.202 1.363 1.469 1.466 2.631 4.852 7.123.869 1.2 1.933 2.24 2.812 3.432.53.568.85 1.302 1.436 1.817.72-2.72.417-3.202.913-3.327.596.065 1.126.39 1.714.492 1.047.069 2.134.048 3.11-.38a2.892 2.892 0 0 0-.566-.667c-3.046-2.67-7.326-12.377-9.094-15.487-2.089-3.778-1.453.496 1.986-17.188.149-.609-.146-1.286.242-1.834.642.569.982 2.573 2.437 3.283 1.853.58 1.83-1.738 2.232-2.335.898 1.082 1.449 2.52 2.725 3.238 2.71.347 1.798-2.132 2.206-3.15 1.024 1.187 1.405 2.49 3.509 3.421.587.264 1.424.233 1.835-.317.56-.998-.094-2.119.109-3.174.285.286.537.6.785.916.891 1.18 6.209 3.01 3.691-2.188.385-.128.717.144 1.05.29 1.158.604 2.833.548 3.651-.586.267-1.62-.873-1.712-1.61-3.052.194-.325.61-.12.91-.113a3.334 3.334 0 0 0 2.82-.728c1.075-.952.065-2.195-.893-2.585-.512-.261-1.16-.273-1.548-.739.845-.447 1.39.205 2.87-.933 1.253-1.177.147-2.506-.459-2.693-.581-.187-1.197-.255-1.76-.503.09-.187.172-.42.41-.453.7-.223 1.485-.397 1.97-1.001.514-.53.6-1.366.331-2.032-.402-.987-2.43-.554-3.097-.931.403-.557 1.132-.695 1.576-1.202.41-.47.833-.971 1-1.583.036-.403.109-.924-.263-1.2-.485-.467-1.214-.452-1.834-.36-.533.122-1.055.684-1.604.32.224-.951 1.198-1.48 1.466-2.412.132-.71-.056-1.608-.765-1.942-2.012-.317-2.215.811-3.222.602.171-.501.67-.791.849-1.287.7-1.903-.472-3.224-3.271-2.077-.1-.048-.297-.147-.395-.195.179-.274.401-.514.653-.716.686-.552 1.596-.828 2.472-.789.59.024 1.066.419 1.484.796.13.096.252.256.43.254 1.25-.736 4.35-3.615 6.434-6.013.666-.751 2.017-2.803 2.864-4.14zm-1.326 81.391c-1.26-.98-1.737-.533-3.14-.605-.603.089-1.085-.678-1.68-.316-2.53 1.482-.448 3.2-5.922 5.755l-.014.258c.584.228 1.299.767 3.494-.63 1.122-.537 1.78-1.675 2.84-2.298.384.127.638.486 1 .664.444.25 1.104.302 1.458-.125.678-1.472-2.461-1.95 1.964-2.703zm-8.169-7.802c.293-1.223.303.13-1.442-3.45-1.906-3.964-1.454-4.17-2.189-6.525-.47-1.592-2.266-9.43-2.548-10.984-2.504-8.922-2.56-8.116-3.549-8.534-.97-.338-1.748-1.032-2.556-1.64-.333.565-.57 1.243-.387 1.898 1.216 3.813.506 11.516 2.692 19.014 1.19 3.273 3.131 10.782 9.98 10.22zm-15.296-11.505c.147-.657-.229-1.268-.277-1.914-.104-.611-.559-8.113-.322-9.868.133-.997-.177-6.192-.26-6.698-.403-.641-.955-1.181-1.434-1.768-.329.357-.58.796-.976 1.085-.823.343-1.74.054-2.457-.402-.086 1.074.216 2.127.236 3.2.023 5.138-.17 7.19.631 10.007.147.552.158 1.141.398 1.668.21.45 1.693 3.243 2.73 3.876.545.328 1.075.75 1.731.814zm-19.348-50.6c1.007-1.002-.455-2.9-.925-3.306-2.216-1.969-3.917-6.314-6.15-8.431-.61-.604-1.144-1.574-2.141-1.469-.55-.062-.891.438-1.073.881.758.799 1.988-.4 3.064.996.124.467-.08.923-.338 1.302-1.232-.014-1.42.04-2.965-1.375-1.214-1.244-4.564 2.183-3.15 3.36 2.103-1.64 2.091-1.656 4.707-.244.477.314 1.052.37 1.595.495 1.002.262 1.852.88 2.713 1.43.913.57 1.343 1.608 2.087 2.352.68.798 1.601 1.424 2.024 2.415.239.511.32 1.078.552 1.593zm-1.389-11.766c.313-.424.259-.992.273-1.489-.115-.021-.348-.064-.465-.087-.13.473-.01 1.461-.746 1.348-.651.05-.654-.7-.776-1.15-.162-.02-.326-.04-.489-.057.126 1.742 1.643 2.158 2.203 1.435zM197 160.625c.361.173.752.375 1.145.156-1.092-1.13-1.283-.865-4.308-1.233-3.732-.256-6.7 1.083-9.563.655-.846-.086-1.599-.51-2.408-.73.206 1.04 1.326 1.315 2.137 1.739.704.385 1.529.21 2.293.261.71.063 1.379-.235 2.081-.273.282-.02.564-.07.828-.17 1.479-.618 5.705-1.127 7.795-.405zm-10.903 29.215c.635-1.156 1.093-1.705.695-5.013-.103-1.302.417-2.542.49-3.826a6.85 6.85 0 0 0-1.453-.536c-1.592-.44-4.445-2.33-6.686-2.242-3.392-.157-5.552 1.45-8.247 3.466-.136-.605.354-1.096.432-1.674.41-1.435.37-2.935.334-4.412-.176-1.607-.943-3.113-2.036-4.29-.489-.436-1.238-.628-1.398-1.349 1.023-.659 3.96.117 5.86-2.527 1.125-2.338.901-4.543-.47-6.633-.864-1.333-2.893-2.515-5.362-4.202-1.483-1.013-3.122-2.208-4.765-3.73-.845-.765-1.503-1.707-2.273-2.545-.972-1.08-1.572-2.442-1.94-3.836-.238-.812-.072-1.665-.157-2.494-.32-.43-.972-.376-1.438-.257-2.052.474-2.607 2.944-2.362 5.032 1.088 5.478 2.588 5.793 4.098 7.788.606.818 1.45 1.404 2.187 2.094 2.765 2.238 2.408 1.972 2.999 1.364.66-.915 1.478-1.23 2.263-1.23 1.115 0 2.169.637 2.623 1.108-.655.172-1.27-.283-1.926-.173-.46.066-.94.117-1.358.333-1.347 1.616.025 2.805.948 4.156-1.655-.054-3.71-.835-3.914 1.745-.034 1.004.53 1.896 1.268 2.53-.777.316-1.758-.183-2.42.453-.742.65-1.305 1.803-.785 2.749.218.486.755.734.938 1.24-.848.406-1.913.493-2.137 2.29.17 1 1.018 1.657 1.818 2.178-.519.37-1.073.711-1.5 1.194-.524.568-.469 1.565.113 2.073 1.847 1.76 2.308.33 3.096 1.133-.853.551-1.75 1.157-2.171 2.123-.175.53-.019 1.152.42 1.51.763.831 2.482-.018 3.168.377-.316.538-.729 1.012-1.04 1.553-.367.627-.106 1.57.627 1.784 1.826.296 2.464-.44 3.32-.666.04.026.121.077.163.102-1.554 3.11 1.134 4.386 4.085 1.524.18-.2.441-.273.692-.34-.077.707-1.283 3.52 1.463 3 1.774-.74 2.31-2.895 3.071-2.912-.018.433-.09.859-.142 1.288-.114.86.782 2.139 2.095 1.573 1.863-1.237 2.24-3.443 3.454-4.053-.025.933-.288 1.907.083 2.807.31.45 1.615.84 3.177-1.627zm.013 4.6c.08-.774.176-1.55.128-2.33-.713.529-1.477 1.165-2.417 1.132-.57.017-1.107-.205-1.651-.339-.67 1.623-.43 7.155-.467 12.467.02 1.16-.443 4.793-.399 5.33 6.184-1.947 4.673-10.425 4.806-16.26zm-2.488 31.938c.27-.3.127-.711.01-1.041-.698-.117-1.552-.325-2.136.203-.695.592-3.809 4.749-6.668 6.997-.965.814-1.854 1.727-2.898 2.447-.406.277-.734.646-1.073.996-.71.73-1.687 1.087-2.514 1.655-1.167.874-2.627 1.227-4.043 1.454-.656.097-1.26.446-1.936.433-1.049.002-2.091.117-3.132.233-.402.103-.56-.33-.79-.562-.45-.554-1.265-.778-1.928-.511-.597.278-.782.953-1.148 1.443-.447.374-1.957.779-2.232 2.4.796-.457 1.516-1.112 2.47-1.206.2.293.321.661.606.885 1.772.397 1.59-.945 2.265-1.22 2.029.276 6.076-.046 9.133-1.513.217-.101.463-.219.693-.08-1.838 3.261-2.593 3.16-3.692 4.127-2.267 1.947-3.94 1.2-5.231 2.563-.1.361.007.772-.211 1.101-.244.42-.54.85-.522 1.36.008.607-.108 1.247.118 1.83.45-1.005.744-2.245 1.753-2.84.308.37.568.83 1.027 1.034 1.626.508 1.608-1.907 1.826-2.687.357.043.778.228 1.091-.045 1.549-1.15 4.32-4.828 5.428-6.34.364.024.807-.123 1.105.154 2.727 2.43 2.543 1.982 4.383 2.758.162.375.106.815.28 1.187.256.399.792.45 1.213.325.368-.215.672-.591 1.141-.551.304.717.515 1.468.769 2.204.242-.852.39-3.32-.968-4.125-.59-.235-1.256-.011-1.852-.239-1.052-.38-2.156-.787-2.94-1.622-1.853-1.911-.999-1.896 4.472-6.997.083-.069 4.456-4.037 6.131-6.21zm-5.666-29.713a7.504 7.504 0 0 0 .212-2.153c-.53-.22-1.096-.415-1.515-.827-.187-.126-.341-.403-.599-.347-.399.222-.714.57-1.113.796-.223.158-.51.257-.672.483-.142.374-.179.778-.28 1.163-.146.74-.496 1.414-.708 2.133-.885 2.589-3.366 11.984-3.366 11.984-3.731 11.74-4.677 10.713-5.985 12.712.49.24 1.006.573 1.575.463.829-.136 1.743-.037 2.476-.522 8.339-4.451 8.187-17.672 9.975-25.885zm-6.666-2.765c.224-.402.13-.886-.111-1.256-.777.149-1.465.672-2.283.6-.562.022-1.046-.305-1.578-.419-1.533.308-8.77 12.434-10.185 14.202-3.922 5.69-8.14 7.472-9.115 8.57-.057.398.26.747.462 1.066 1.166 1.645 4.558 1.588 5.707 1.052 3.263-1.53 5.312-3.73 7.434-6.838.471-.653 9.626-16.895 9.67-16.977zm-5.96 42.682c1.391.602 1.513.303 2.375-.275-.956-.541-1.98-.985-2.784-1.755-1.645-1.364-2.231-3.633-3.394-3.884-.49-.066-.968.108-1.455.123-1.662.06-1.926.137-3.161 1.18.803-.008 1.602.076 2.403.136.059.622-.095 1.343.308 1.875.568.18 1.279.35 1.804-.033.168-.102.362-.273.563-.139.695.407 1.627 2.026 3.342 2.772zm-.898-45.81c-.391-.338-.866-.563-1.246-.915-.51-.595-.487-1.43-.807-2.115-1.355.466-2.41 1.477-3.614 2.21-.803.5-5.18 3.79-5.851 4.182-6.488 4.17-5.297 2.677-7.924 3.548.15 1.698 2.316 3.901 4.5 3.712 3.32.015 9.772-5.17 11.4-7.248 1.04-1.267 2.357-2.255 3.542-3.374zm-2.508-25.908c.519-.713-1.345-1.198-3.831-2.942-.123-.087-3.482-2-5.473-3.777-2.253-1.994-1.452-1.248-2.985-3.522-.34-.51-.59-1.074-.791-1.653-.939.672-1.121 1.908-1.266 2.972-.3 1.673.382 3.284.875 4.846.277.768.947 1.282 1.454 1.891 2.009 2.444 4.858 3.558 6.538 4.246 2.123.862 3.487 1.885 3.928 1.803.785-.424.389-.706 1.954-1.29-.381-.784-.893-1.718-.403-2.574zm-1.836 18.843c.192-.427.466-.82.554-1.289-1.506-1.009-1.684-1.504-2.169-1.67-.374-.014-.726.135-1.088.205-3.627.73-5.092 1.507-10.234 2.1-.974.104-1.929-.166-2.854-.434-.17.542-.1 1.118-.1 1.677 0 .663.358 1.247.6 1.843.422 1.066 2.322 2.06 3.293 2.115.81.035 1.637.144 2.433-.073 3.705-.729 8.524-3.033 8.838-3.247.407-.286.523-.802.727-1.227zm-.332-10.829c-.745-.25-1.533-.323-2.302-.47-9.943-2.068-9.685-1.854-11.768-3.162-.412-.254-.673-.763-1.197-.801-.507 1.684-.858 3.202.264 4.724 1.838 2.469 2.346 2.292 4.146 2.886 1.813.63 4.6.617 10.341.508-.505-1.413-1.237-1.413.516-3.685z"/>
  </g>
  <g>
    <path fill="none" stroke="#000" stroke-width="3" d="M257.004 328.686v-32.078M249.32 336.28l7.684 7.595 7.685-7.594-7.685-7.595z"/>
    <path stroke="#000" stroke-width="3" d="m251.68 296.608 5.324 6.777 5.324-6.777z"/>
    <path fill="none" stroke="#000" stroke-width="3" d="M249.32 323.323h15.369M253.162 309.151h7.684M251.24 316.237h11.528"/>
    <ellipse cx="94.995" cy="111.043" fill="none" stroke="#000" stroke-linecap="round" stroke-linejoin="round" stroke-width="3" rx="11.066" ry="11.043"/>
    <path fill="none" stroke="#000" stroke-width="3" d="M94.995 100v41.686M88.21 136.056l6.785 6.552 6.785-6.552M84.915 124.24l10.08 9.944 10.08-9.944M131.818 307.75l20.652 27.868h-20.652l20.652-27.867M135.571 312.815h13.146"/>
    <path fill="none" stroke="#000" stroke-linejoin="round" stroke-width="3" d="M305.739 156.725a2.759 2.759 0 0 1 1.593-2.5 2.759 2.759 0 0 1 2.939.387 2.759 2.759 0 0 1 .892 2.827" transform="rotate(36.51) skewX(-.033)"/>
    <path fill="none" stroke="#000" stroke-linejoin="round" stroke-width="3" d="M77.34 325.868a2.759 2.759 0 0 1 1.592-2.5 2.759 2.759 0 0 1 2.94.386 2.759 2.759 0 0 1 .891 2.827" transform="matrix(-.80375 .59497 .59543 .8034 0 0)"/>
    <path fill="none" stroke="#000" stroke-width="3" d="m62.14 210.611 19.588 19.154L62.14 248.92"/>
    <path fill="none" stroke="#000" stroke-width="3" d="M81.728 210.611 62.14 229.765l19.588 19.154"/>
    <ellipse cx="71.934" cy="229.765" rx="2.681" ry="2.621"/>
    <ellipse cx="71.934" cy="210.251" rx="2.681" ry="2.621"/>
    <ellipse cx="71.934" cy="250.008" rx="2.681" ry="2.621"/>
    <path fill="none" stroke="#000" stroke-width="3" d="M314.842 119.73h-23.375M321.86 126.748l7.016-7.017-7.017-7.017-7.017 7.017z"/>
    <path stroke="#000" stroke-width="3" d="m284.45 126.748 7.017-7.017-7.017-7.017-7.017 7.017z"/>
    <path fill="none" stroke="#000" stroke-width="3" d="M303.154 131.419v-23.376M218.755 73.118h-37.51M192.334 61.884l7.666 9.76 7.666-9.76zM192.334 84.449l7.666-9.76 7.666 9.76z"/>
    <path fill="none" stroke="#000" stroke-linejoin="round" stroke-width="3" d="M218.755 82.61a4.745 4.746 0 0 0 4.745-4.747 4.745 4.746 0 0 0-4.745-4.745M181.245 63.626a4.745 4.746 0 0 0-4.745 4.746 4.745 4.746 0 0 0 4.745 4.746"/>
    <ellipse cx="326.647" cy="214.566" fill="none" stroke="#000" stroke-linecap="round" stroke-linejoin="round" stroke-width="3" rx="7.307" ry="7.592"/>
    <path fill="none" stroke="#000" stroke-width="3" d="m319.34 245.762 7.307 7.591 7.307-7.591-7.307-7.592z"/>
    <path fill="none" stroke="#000" stroke-linejoin="round" stroke-width="3.001" d="M31.254 390.637a3.77 3.7 0 0 1 1.757 4.162 3.77 3.7 0 0 1-3.643 2.742" transform="matrix(-.48574 .8741 .85755 .5144 0 0)"/>
    <path fill="none" stroke="#000" stroke-linejoin="round" stroke-width="3.001" d="M-27.483-404.446a3.77 3.7 0 0 1 1.757 4.162 3.77 3.7 0 0 1-3.642 2.743" transform="matrix(.48574 -.8741 -.85755 -.5144 0 0)"/>
    <path fill="none" stroke="#000" stroke-width="3" d="M326.647 238.17v-16.012"/>
  </g>
</svg>
