<svg xmlns="http://www.w3.org/2000/svg" viewBox="0 0 326.644 400">
  <path fill="#da121a" stroke="#000" stroke-width="4.254" d="M2.127 2.127h322.39v187.195c0 110.615-86.495 187.194-161.195 208.466-74.7-21.272-161.195-97.851-161.195-208.466Z"/>
  <path fill="#fff" stroke="#000" stroke-linejoin="round" stroke-width="2.978" d="m251.38 200.483-23.01 19.574-14.682-17.258-7.77-3.306L81.143 52.8l14.381-12.232c5.753-4.892-4.033-16.399-9.782-11.506L45.473 63.318c-5.752 4.892 4.033 16.4 9.783 11.506l14.38-12.233 124.777 146.692 2.017 8.2 14.682 17.258-23.01 19.573c24.465 28.763 51.375 60.404 92.8 44.992 21.853-38.423-5.057-70.064-29.522-98.823z"/>
  <path fill="none" stroke="#000" stroke-linejoin="round" stroke-width="2.978" d="M81.148 52.805 69.643 62.59m136.275 136.908-10.338-.526-1.167 10.312m33.954 10.777c10.83 10.744 13.907 25.946 19.205 39.925-15.111-8.345-25.595-12.462-36.464-25.246m45.16-28.5-23.01 19.574M216 240.495l-23.01 19.574"/>
  <path fill="none" stroke="#000" stroke-width="2.978" d="M212.8 215.654a3.748 3.748.711 1 1-7.478-.53 3.748 3.748.711 1 1 7.478.53z"/>
  <path fill="#fff" stroke="#000" stroke-width="2.978" d="M69.579 252.149c30.716-19.703 48.702-38.356 60.082-55.6-15.592-8.503-11.283-8.219 2.234-4.83 6.36 1.593 16.859.446 26.188-20.808 7.161-16.317 14.361-23.757 14.361-23.757-10.023 2.383-28.122 1.353 1.975-5.663 11.138-17.722 25.774-33.683 39.392-50.157-28.28 15.787-19.246 1.557 4.913-5.395 13.682-24.517 42.402-40.31 74.387-54.211-22.807 3.62-48.012 5.783-56.517 18.083l-.5-5.359c-21.578 8.267-71.808 33.815-72.743 38.163-.718 3.34-3.497 10.943-4.518 17.94-1.08-4.038-1.506-8.587-1.234-13.68-14.658 8.947-40.708 33.915-41.335 39.175-.364 3.042.511 25.777 3.364 35.583-6.378-7.652-8.392-17.97-10.607-28.168-4.778 6.217-26.093 17.992-16.565 61.051-5.266-4.573-5.355-12.916-7.529-19.741-12.536 20.772-22.2 50.478-18.212 78.353"/>
  <path fill="#fff" stroke="#000" stroke-width="2.978" d="m131.798 158.264 57.734-68.982c-66.11 67.31-119.285 136.387-143.859 209.005l2.05-.252s3.302-6.375 5.938-9.212c2.636-2.837 10.869-9.974 10.869-9.974s4.85-24.4 18.03-49.124c13.18-24.724 32.841-49.132 36.845-54.51 4.005-5.38 12.393-16.95 12.393-16.95z"/>
</svg>
