<svg xmlns="http://www.w3.org/2000/svg" viewBox="0 0 270 400"><path fill="#214e14" stroke="#060606" stroke-width="3" d="M1.501 192.224V1.501H268.5v190.723c0 55.562-50.815 155.567-133.499 206.015C52.316 347.791 1.501 247.786 1.501 192.224Z"/><path fill="#c0b216" d="M77.834 12.42c6.2 3.45 31.236 24.566 47.185 36.451l-.916-9.227 9.181 9.91 11.923-.675-4.483 10.06 7.054 4.042 8.761-6.495 1.49 6.666 10.074.924-7.008 11.01 5.93-.437-3.932 9.112 8.176 2.06-7.115 4.057 6.928 8.426-9.465 3.054 12.552 7.539-8.534 6.182 5.572 4.259-1.373 3.183 9.677 2.804-14.062 4.005-1.034 12.812c-5.16 4.736-.547 14.207-.547 14.207l-12.946-10.61s-6.485 15.026-.034 27.321l29.431 16.932c13.506 8.992 15.105 25.59 15.105 25.59l14.792 7.49 10.61-4.182 3.371-10.298c-4.425-13.95-13.558-18.369-12.608-5.805-4.443.172-17.788-15.042-17.788-15.042s-.796-9.137 8.114-9.3l-16.04-37.449c3.233-12.95 19.41-30.708 19.41-30.708l-5.367-17.789-13.919 1.81 3.558-10.236-4.494-14.667 8.8-7.365s-3.236 14.557 6.492 17.226c7.237-18.613 18.985-9.333 21.533-3.682-14.519 3.097-6.304 16.602-6.304 16.602l-1.81 10.985 6.553 7.365 8.926 1.311-11.61 10.673-5.367 13.107-4.432-11.921-14.542 7.677c-5.473 14.761 14.293 41.693 14.293 41.693s15.35-13.222 22.781 2.06c0 0-15.34-5.957-15.167 6.679l12.046 17.101 4.307 18.163c-9.207 21.866-34.39 9.8-34.39 9.8l-22.096 33.33 13.295 23.717-1.81 43.379-4.869 5.242 5.306 8.052-20.348 7.115 12.546-38.635-4.931-16.852s-24.554-23.297-32.893-38.885l-6.616 5.555c-1.265 4.866 10.361 11.36 10.361 11.36l-26.464 30.022 2.024 12.617-12.357.353c-3.437 4.14 1.412 11.21 1.412 11.21l-17.085-1.298 27.126-33.053 2.424-21.711-14.798-29.262s3.796-15.552 15.397-23.688c-19.715-7.38-35.12-38.856-35.12-38.856s-20.298-8.842-24.707-20.596l-3.033 23.719 4.603 10.047h5.649l-1.55 16.513-13.536-17.204-3.098-37.353 9.357-9.444 13.681 3.972-1.132-11.62c-10.296-7.258-13.914-27.206-13.914-27.206l-8.413-4.626-19.08 22.663 2.78 12.29-9.318 10.352-3.795-24.097c8.099-16.74 29.658-31.335 29.658-31.335l11.74 1.236 7.192 14.278 12.89 14.118 14.695-9.066 20.821-26.928-24.883 3.53-2.028-2.994 10.239-2.207.265-4.766-11.122 3.177-3.779-8.915 11.268-2.456 23.67-15.903c-13.09-14.848-45.147-39.83-44.962-43.35Z"/><path fill="#060606" d="M165.595 349.418a33.143 33.143 0 0 1-.257-.417c-.033-.057.036-.596.153-1.198.466-2.388.495-2.692.48-4.957-.028-4.03.505-5.444 5.276-14.005a969.515 969.515 0 0 0 1.367-2.458c.08-.145.261-.257.588-.36.601-.19.549.11.648-3.713.167-6.447.44-8.06 2.184-12.934.377-1.053.34-2.026-.151-3.906-.382-1.463-.489-2.279-.56-4.283-.185-5.199-1.804-8.7-5.04-10.9-.417-.282-1.343-1.017-2.059-1.633a88.023 88.023 0 0 0-2.141-1.785c-1.047-.83-1.822-1.605-3.527-3.53-.736-.832-2.4-2.59-3.697-3.906-1.548-1.572-2.65-2.77-3.208-3.491-.95-1.23-1.773-2.151-3.89-4.362-2.358-2.463-3.442-3.858-4.993-6.425a40.736 40.736 0 0 0-1.327-2.05c-1.163-1.635-1.993-3.158-3.324-6.097-.875-1.933-.732-1.856-2-1.082-3.532 2.156-4.674 3.799-3.894 5.6.306.705.572.885 5.587 3.79 2.677 1.55 3.284 2.067 3.911 3.328.899 1.81.714 2.41-1.533 4.981-.553.633-1.387 1.747-2.084 2.787-1.618 2.413-1.885 2.73-4.782 5.67-4.277 4.341-6.345 6.544-7.12 7.583-.415.556-1.373 1.636-2.21 2.493-.813.831-1.852 1.984-2.309 2.562-.457.577-1.4 1.616-2.097 2.31-3.753 3.732-4.355 6.521-2.676 12.395 1.035 3.621.555 4.626-2.46 5.153-1.281.224-1.772.166-3.77-.447-3.088-.947-4.054-.88-5.413.378-1.322 1.225-1.259 2.052.455 5.94.84 1.907 1.208 2.95 1.28 3.633l.046.428-.493.38c-1.409 1.082-2.106 1.19-5.911.914-2.747-.2-3.34-.271-4.983-.602-2.544-.513-3.124-.516-5.222-.032-1.935.447-2.456.547-3.129.598-.392.03-.692.02-.692-.023 0-.041.185-.642.413-1.335.227-.693.646-1.993.93-2.89 1.12-3.525 1.752-4.638 4.05-7.12 1.922-2.074 3.419-3.355 5.009-4.285 1.758-1.028 2.12-1.333 4.488-3.78 3.065-3.167 4.453-4.755 6.366-7.284.597-.788 1.276-1.68 1.507-1.98.9-1.165 1.844-2.835 3.273-5.795.48-.992 1.106-2.165 1.392-2.606 1.563-2.41 1.864-3.285 2.218-6.465.638-5.73.582-8.04-.284-11.711-.208-.881-.498-2.13-.645-2.777-.5-2.194-1.427-4.586-2.508-6.47-.616-1.072-.897-1.484-2.86-4.197-4.045-5.588-5.378-8.366-6.373-13.283-.852-4.215-.817-5.273.335-9.874 1.803-7.206 4.254-11.227 9.313-15.28 1.918-1.537 3.024-2.546 3.024-2.758 0-.2-.857-.642-2.856-1.472-1.957-.814-2.814-1.257-3.617-1.868l-2.324-1.765c-1.279-.97-1.98-1.578-2.892-2.505a59.527 59.527 0 0 0-2.204-2.12c-3.758-3.368-6.695-7.13-9.935-12.723-2.193-3.786-3.026-5.168-4.338-7.198-1.388-2.148-1.858-2.945-3.018-5.123-2.504-4.697-2.623-4.864-3.63-5.077-4.375-.927-8.236-2.59-12.262-5.282-2.898-1.938-6.834-6.777-8.844-10.874-.983-2.003-1.006-2.025-1.386-1.277-.277.547-.282.493.25 2.646.898 3.64.938 4.48.403 8.32-.114.817-.263 2.436-.331 3.598-.12 2.04-.138 2.164-.511 3.622-.592 2.312-.5 2.886.744 4.68.906 1.305 1.091 1.868 1.235 3.748.227 2.977.71 3.407 3.274 2.914 2.828-.543 2.832-.543 3.175.106.48.909.54 1.97.226 3.962-.21 1.33-.238 3.048-.116 7.098.186 6.138.163 6.49-.482 7.578-.744 1.254-1.02 1.238-2.677-.152a116.077 116.077 0 0 0-1.932-1.578 33.939 33.939 0 0 1-1.973-1.731c-1.794-1.726-2.308-2.186-3.08-2.758-.923-.684-1.208-1.073-1.793-2.451-.523-1.23-.742-1.624-1.683-3.031-.9-1.345-1.37-2.266-2.018-3.965-.562-1.471-.835-1.981-1.672-3.125-.913-1.247-1.638-2.806-1.971-4.242-.34-1.462-.206-8.537.198-10.456.504-2.397.506-8.206.003-10.835a29.233 29.233 0 0 1-.291-2.142c-.145-1.493-.253-2.1-.799-4.493-.985-4.325-.947-4.78.546-6.509.39-.452.8-.96.908-1.126.8-1.233 1.096-1.62 1.732-2.27.398-.405 1.29-1.205 1.982-1.777.693-.572 1.558-1.295 1.921-1.608 1.942-1.671 2.372-1.71 5.378-.475 2.9 1.19 3.255 1.295 6.098 1.804l2.332.417c1.202.215 1.406.202 1.327-.08-.338-1.195-.547-3.928-.55-7.181l-.002-1.797-.273-.24c-.15-.131-.657-.523-1.127-.87a12.463 12.463 0 0 1-1.553-1.4c-.766-.842-1.654-1.736-3.072-3.093-.687-.659-1.003-1.031-1.242-1.47a76.615 76.615 0 0 0-1.069-1.843c-1.047-1.756-1.083-1.836-1.826-4.06-1.07-3.2-1.778-5.949-2.733-10.601-1.002-4.878-.8-4.65-5.09-5.75-2.189-.561-2.112-.559-2.753-.087-.983.724-1.893 1.769-3.219 3.697-.495.72-.843 1.11-1.566 1.752-.51.455-1.213 1.176-1.56 1.604-.936 1.151-1.666 1.757-4.078 3.384-3.74 2.524-4.657 3.767-6.34 8.586-.265.762-.65 1.8-.856 2.307-.852 2.098-.82 2.798.22 4.958.555 1.154 1.115 1.91 2.031 2.74 1.983 1.795 1.98 1.79 1.43 2.485-.515.65-1.21 1.226-2.7 2.23-1.778 1.2-2.517 1.925-3.363 3.296-1.173 1.902-2.094 2.991-3.687 4.364-.442.38-1.327 1.235-1.967 1.9l-1.164 1.207-.168-.207c-1.013-1.251-1.953-4.834-2.125-8.104a38.275 38.275 0 0 0-.253-2.436 95.934 95.934 0 0 1-.377-3.401c-.18-1.988-.326-2.967-.795-5.375-1.047-5.37-.351-8.439 2.681-11.815 2.014-2.242 3.353-4.492 4.166-7 1.137-3.507 4.907-7.165 11.252-10.917 2.52-1.49 3.248-2.007 4.594-3.265 1.26-1.178 1.605-1.457 3.223-2.615a18.713 18.713 0 0 0 2.189-1.861c.759-.752 1.212-1.13 1.545-1.294l.473-.231 2.198.053c1.209.03 3.357.094 4.774.142 1.768.06 3.137.06 4.367.002 2.28-.11 2.218-.11 2.371.043.264.264.314.727.171 1.606-.175 1.08-.16 1.15.685 3.15.396.939 1.022 2.614 1.39 3.723.923 2.78 1.438 3.825 3.105 6.3 1.254 1.862 1.747 2.37 4.023 4.16.67.527 1.482 1.179 1.805 1.45.324.27 1.122.847 1.775 1.28 2.12 1.41 2.573 2.064 3.606 5.203.662 2.016.511 1.9 1.764 1.35 1.69-.743 2.544-1.205 3.9-2.109.777-.517 2.25-1.363 3.654-2.098 4.039-2.115 5.902-3.536 7.64-5.83.336-.445.985-1.22 1.441-1.72 1.51-1.66 1.893-2.102 2.266-2.61l1.722-2.352c1.739-2.374 2.257-3.12 3.087-4.433 1.614-2.555 3.052-4.413 4.915-6.349a68.577 68.577 0 0 0 1.92-2.072c.357-.414.959-1.035 1.336-1.38.746-.68 1.416-1.522 1.416-1.778 0-.592-2.21-.176-4.455.838-3.58 1.618-5.431 1.933-8.251 1.404-3.317-.621-5.54-.142-7.998 1.723l-.672.51-.78-.053c-1.589-.109-2.448-.811-3.473-2.838-1.358-2.687 1.551-4.828 7.046-5.184 2.547-.165 2.923-.29 3.328-1.103.25-.5.302-1.273.106-1.541-.204-.279-3.062.5-5.272 1.437-2.207.935-5.323 1.292-6.137.703-1.284-.93-2.685-3.356-3.627-6.277-.477-1.48-.291-2.904.542-4.163.653-.986 1.272-1.17 5.411-1.619 4.53-.49 4.925-.598 6.66-1.817.7-.49 1.554-.985 2.522-1.457 1.546-.755 2.097-1.095 3.573-2.208 1.199-.903 1.697-1.173 3.342-1.809 3.339-1.29 4.05-1.787 6.338-4.427 1.592-1.837 2.08-2.281 3.119-2.846 1.89-1.027 2.73-1.603 2.84-1.946.14-.444-1.334-2.107-2.621-2.957-1.06-.7-1.835-1.415-2.935-2.707-1.116-1.312-1.338-1.498-2.491-2.092-1.293-.666-1.423-.777-1.956-1.683-.63-1.07-.775-1.226-1.619-1.735-.974-.588-1.349-.95-2.05-1.979-.748-1.1-1.086-1.443-2.123-2.16-1.443-.998-1.807-1.32-2.527-2.238-.806-1.027-1.436-1.63-2.097-2.01-.725-.414-1.68-1.155-2.605-2.02-.627-.586-1.135-.963-1.973-1.46-1.42-.844-1.604-1.013-2.426-2.227-.785-1.157-1.1-1.454-2.292-2.163-1.206-.718-1.254-.762-1.923-1.76-.81-1.206-1.036-1.436-2.139-2.17-1.06-.707-1.146-.801-1.84-2.026-.543-.96-.504-.933-1.933-1.364-.999-.3-1.136-.42-1.701-1.48l-.396-.745-.868-.467c-1.382-.743-1.403-.767-2.444-2.86-.892-1.791-1.281-2.874-1.1-3.056.256-.255 2.29.496 3.265 1.205.327.238 1.343.888 2.257 1.444 2.122 1.292 2.55 1.6 3.592 2.59.783.744.921.838 1.646 1.128 1.146.457 1.285.565 2.05 1.599.82 1.11.988 1.26 2.038 1.826 1.001.539 1.241.75 1.975 1.73.347.464.78.926 1.059 1.133.978.722 1.317 1.047 1.87 1.793.711.958 1.069 1.275 2.592 2.297.67.45 1.803 1.281 2.52 1.848 1.28 1.012 2.326 1.752 3.144 2.224.593.341 1.072.808 1.815 1.767.833 1.076.913 1.146 1.717 1.514 1.959.897 2.023.936 2.622 1.61 1.307 1.474 1.38 1.538 2.1 1.88l1.392.66c.84.397 1.025.572 1.7 1.601.807 1.233 1.105 1.46 3.4 2.585 1.578.775 1.63.817 2.422 1.93 1.043 1.463 1.777 1.984 1.776 1.26 0-1.462-.83-4.07-2.021-6.349l-.585-1.12.274-.256c1.393-1.302 1.8-1.361 3.106-.454.29.203 1.095.718 1.788 1.145 1.556.96 2.518 1.701 3.083 2.378 1.093 1.309 2.786 4.24 3.39 5.871.319.859.57.812 2.39-.445 3.583-2.473 10.2-1.322 12.714 2.213 1.814 2.551 1.619 3.752-.543 3.335-1.45-.279-3.787-.108-4.196.307-.136.138-.507 1.581-.604 2.347-.227 1.802.593 3.633 1.9 4.243 2.41 1.123 4.523.868 6.437-.777 1.035-.891 1.322-1.107 1.886-1.421 1.846-1.029 2.511-2.81 2.05-5.486-.194-1.135-.182-1.85.039-2.188l.147-.225.478.268c.263.147.728.43 1.035.627l.557.358.1.576c.3 1.715.433 2.987.505 4.83.079 2.017.47 5.358.648 5.537.042.041.454-.033.958-.174 5.253-1.463 7.262-1.267 9.062.885.886 1.059 1.67 1.805 2.44 2.322.807.543.793.51.538 1.258-.274.805-.161.767-1.68.568-2.474-.324-3.006.002-4.679 2.86-.391.67-1.02 1.71-1.397 2.31-1.513 2.41.538 1.593 2.316-.924 1.279-1.81 1.389-1.832 2.058-.423.722 1.52.75 1.925.215 3.16-.209.481-.619 1.46-.911 2.177-.746 1.827-1.162 2.616-2.196 4.168-1.173 1.763-1.232 1.62.638 1.565 4.634-.137 7.021 1.073 9.567 4.85.538.797.972 1.329 1.464 1.792.39.367.7.728.7.815 0 .113-1.24 2.145-1.476 2.42-.014.016-.453-.404-.976-.933-2.798-2.833-4.556-3.181-8.794-1.74-1.992.677-1.996.774-.072 1.462 1.387.496 2.035 1.02 3.793 3.063 3.3 3.837 6.231 9.19 5.888 10.752-.259 1.179-.956.858-1.895-.872-1.49-2.744-1.998-3.211-3.833-3.531-2.17-.378-5.18.3-6.902 1.554-.488.355-.433.382 1.08.544 7.022.751 10.373 3.443 12.138 9.753.322 1.15.458 1.416 1.079 2.104.484.537.49.474-.14 1.583-.469.828-.55.927-.774.946-.356.031-.36.026-1.086-1.366-1.277-2.45-1.603-2.733-3.446-2.99-2.713-.38-4.45.574-4.635 2.546-.171 1.84.679 2.5 3.22 2.501l1.61.001.1.304c.214.647-.026 1.275-.913 2.394-1.508 1.904-1.33 1.992 4.167 2.066 3.468.047 3.317.064 3.89-.445.886-.787 1.587-.6 2.19.58.214.42.286.295-1.142 1.978-1.781 2.1-2.486 2.689-4.825 4.03-2.94 1.683-4.67 1.98-8.659 1.486-1.975-.245-1.917-.297-1.224 1.097.923 1.857 1.098 2.631 1.013 4.484-.165 3.597-.849 6.096-2.145 7.845-1.484 2.003-1.801 2.754-1.794 4.25.01 2.093.897 6.094 2.065 9.323.84 2.323.846 2.434.188 4.262-.343.955-.326.943-1.144.808l-.309-.05-.43-1.272c-1.42-4.19-4.34-7.584-8.149-9.472l-1.218-.604-1.357-1.38c-1.693-1.72-1.507-1.753-2.23.4-.993 2.961-1.166 3.953-1.326 7.602-.049 1.108-.124 2.299-.167 2.645-.39 3.152 1.049 8.278 3.253 11.588.764 1.148 1.098 1.491 2.738 2.817.686.554 1.612 1.304 2.058 1.666 1.456 1.184 2.695 1.941 5.052 3.089 3.135 1.526 3.441 1.69 4.62 2.467 1.115.734 1.724 1.063 3.275 1.763.531.24 1.57.785 2.31 1.211 1.86 1.073 4.891 2.575 6.372 3.158 2.87 1.13 5.66 3.167 8.753 6.392 2.976 3.104 3.038 3.184 4.76 6.196 1.122 1.965 2.685 6.3 3.289 9.127 1.412 6.612 2.054 7.642 5.496 8.822.77.263 2.192.827 3.162 1.253 5.078 2.229 8.33 2.428 11.89.729 2.093-.999 3.4-2.222 4.16-3.89.165-.363.634-1.36 1.041-2.214 1.768-3.71 1.797-4.396.337-8.063a40.403 40.403 0 0 1-.84-2.352c-.743-2.37-1.825-3.88-3.688-5.144-3.431-2.33-6.164-.486-3.973 2.68.225.324.373.657.438.98.055.27.162.542.239.604.076.063.348.281.603.486.75.603 1.192 1.612.814 1.86-1.316.862-4.927.437-7.566-.89-2.41-1.213-2.927-1.615-5.502-4.277-2.715-2.808-2.686-2.764-3.027-4.782-.198-1.173-.306-1.297-1.938-2.226-1.061-.603-2.919-2.155-3.6-3.007-1.073-1.344-1.024-4.4.11-6.861.245-.532.605-1.41.8-1.951.887-2.467 1.722-3.068 5.04-3.632 1.495-.253 1.597-.278 1.597-.39 0-.045-.53-.821-1.179-1.725-1.116-1.555-1.549-2.246-2.889-4.603a56.707 56.707 0 0 0-1.389-2.268c-2.651-4.096-5.232-9.18-7.263-14.31-.98-2.475-1.362-3.876-1.887-6.901-1.196-6.9-1.133-6.39-1.073-8.693.09-3.368.216-3.803 2.35-8.08 2.006-4.018 2.568-4.961 3.717-6.24.353-.393 1.195-1.376 1.87-2.184a75.246 75.246 0 0 1 2.239-2.551 39.815 39.815 0 0 0 1.623-1.848c.336-.422 1.225-1.371 1.975-2.11 3.09-3.047 4.426-5.351 4.425-7.64 0-2.093-.48-3.937-1.754-6.737-.324-.711-.56-1.453-.975-3.066-.684-2.651-1.258-3.928-1.879-4.178-3.697-1.486-7.674.098-8.534 3.399-.301 1.157-.13 4.75.291 6.108.214.688.215.686-.474.899-1.163.359-1.477.225-2.215-.945-.24-.38-.585-.907-.766-1.17-.436-.635-.525-.868-.74-1.934-.142-.704-.298-1.146-.713-2.016-1.52-3.19-1.93-6.348-1.216-9.384.436-1.856 1.547-3.192 3.71-4.463.994-.583 1.033-.483-1.102-2.848-2.703-2.993-3.635-5.31-3.283-8.161.963-7.806 3.011-10.756 8.564-12.336.346-.098 1.134-.428 1.75-.732 1.649-.813 2.726-.838 3.198-.073.143.23.595 1.375.595 1.505 0 .025-.25.13-.557.231l-.557.186-.455.958c-.59 1.243-1.536 4.264-1.796 5.74-.45 2.551 1.214 6.255 3.544 7.892.83.582.872.572.99-.242.771-5.268 2.83-7.44 8.448-8.907.739-.194 1.722-.46 2.184-.593 2.299-.66 4.434-.455 7.014.674 1.61.705 5.313 4.445 7.233 7.307 1.853 2.762 2.533 5.9 1.444 6.665-.66.462-1.724.354-1.84-.187-.54-2.514-1.123-3.629-2.01-3.837-2.49-.586-5.075.538-6.123 2.661-1.38 2.797-1.035 5.722 1.293 10.979 1.252 2.827.96 5.306-1.098 9.31-1.055 2.053-1.051 1.898-.051 2.418 2.776 1.444 2.729 1.401 3.418 3.083.529 1.29.849 1.779 1.725 2.64l.695.682.659.091c1.856.257 3.14.194 5.017-.246 1.346-.314 2.719-.413 4.963-.355 1.913.049 2.089.084 3.72.75.611.25 1.424.545 1.805.655l.692.199.229.535c.738 1.731-.648 2.674-2.715 1.845-.877-.352-1.758-.44-3.41-.339-2.16.132-2.22.16-3.415 1.648-1.04 1.295-1.156 1.418-2.465 2.623a18.57 18.57 0 0 0-1.88 2.005c-1.62 2.066-2.443 2.643-5.116 3.588-1.436.508-1.3.278-1.307 2.209-.017 4.557-.877 6.351-5.122 10.68-1.837 1.874-2.067 2.141-2.534 2.943-.705 1.21-.978 1.458-1.903 1.726-.406.118-1.604.533-2.662.924-2.24.826-2.058.797-2.457.388-.828-.848-.607-1.302 1.092-2.247 1.472-.818 1.837-1.376 2.897-4.429.27-.78.719-1.999.996-2.709.728-1.866.697-3.343-.103-4.9-.966-1.88-3.766-1.507-8.13 1.082-4.234 2.512-6.279 6.01-6.52 11.154-.13 2.796.665 7.549 1.607 9.604.204.445.639 1.427.966 2.184 1.137 2.622 2.473 5.075 4.182 7.675 1.495 2.273 1.862 2.894 2.693 4.564.813 1.635 1.32 2.482 2.93 4.899.595.893 1.226 1.86 1.403 2.148.393.642.442.644 1.18.054 2.525-2.02 3.335-2.398 6.173-2.882a32.19 32.19 0 0 0 2.562-.552c1.707-.471 1.783-.47 3.36.04 1.221.396 1.465.446 2.687.552 2.679.233 2.944.383 5.67 3.208 2.138 2.217 2.603 3.234 2.603 5.697 0 1.574-.32 1.722-1.77.82-.817-.507-1.272-.704-2.385-1.03-.559-.164-1.419-.517-2.184-.897-2.306-1.146-5.225-.819-7.307.82-1.129.887-1.418 4.921-.43 6.014.223.247.302.41.302.624 0 .973.558 1.779 2.151 3.107 2.102 1.75 2.29 2.026 3.73 5.444.57 1.352.812 1.764 2.641 4.493 2.134 3.183 2.832 4.627 3.86 7.987.3.975.66 2.065.802 2.423 1.028 2.587 1.356 7.29.724 10.36-.111.541-.245 1.286-.298 1.656-.73 5.12-2.448 7.786-7.27 11.27-3.62 2.618-8.175 3.225-16.84 2.244-2.34-.265-4.698-.94-6.928-1.982-1.49-.696-2.668-1.14-3.119-1.176l-.325-.026-.449.882c-.246.485-.969 1.846-1.605 3.024-1.868 3.457-1.984 3.682-2.515 4.884-.45 1.018-.651 1.343-1.794 2.898-.709.963-1.929 2.638-2.712 3.723-.783 1.085-1.69 2.257-2.016 2.604-3.81 4.062-5.644 6.6-7.616 10.538-2.13 4.254-2.098 5.145.332 9.103.444.724 1.085 1.84 1.424 2.483.788 1.494 1.25 2.183 2.802 4.179a70.45 70.45 0 0 1 1.76 2.349c.274.397.862 1.15 1.307 1.671a24.898 24.898 0 0 1 1.51 2.006c.384.582.916 1.304 1.182 1.604 2.558 2.894 2.794 4.274 1.092 6.382-1.59 1.969-1.835 5.14-.805 10.374.53 2.692.517 3.457-.132 8.231-.34 2.495-.396 3.716-.295 6.47.32 8.825.073 12.23-1.109 15.247-.82 2.093-1.09 2.479-2.365 3.373-1.86 1.304-2.05 1.714-1.382 2.98l.733 1.396c.476.91 1.252 1.954 2.574 3.46 1.226 1.397 1.544 2.17 1.149 2.791-.164.259-5.512 2.042-8.012 2.672-1.554.39-2.568.813-5.231 2.177-2.441 1.25-3.297 1.612-4.567 1.932-.87.22-1.415.454-2.449 1.054-1.265.736-2.223.869-2.543.354zm4.427-4.386c1.186-.306 2.385-.775 4.419-1.728 2.26-1.06 3.303-1.497 4.377-1.838.526-.166 1.2-.393 1.501-.503.3-.11.946-.296 1.435-.413 1.07-.256 2.513-.794 2.513-.937 0-.056-.35-.437-.777-.845-2.188-2.089-3.224-4.439-3.062-6.943.08-1.223.326-1.564 2.107-2.914 1.388-1.053 1.83-1.563 2.121-2.454.08-.247.233-.576.337-.73.554-.816.724-1.847.687-4.164-.018-1.086.015-2.063.092-2.738.1-.887.102-1.428.013-3.486-.14-3.235-.154-8.187-.025-9.113.055-.392.16-1.394.233-2.226.074-.831.226-1.977.338-2.547.309-1.572.275-2.079-.303-4.55-.675-2.881-.712-5.557-.124-8.9.137-.781.407-1.284 1.25-2.33.797-.99.779-.856.257-1.87-1.027-1.998-2.11-3.537-5.163-7.345-3.001-3.74-3.124-3.908-4.31-5.862-3.093-5.099-4.222-7.577-4.142-9.095.124-2.335.778-4.056 2.957-7.777 2.058-3.515 2.776-4.564 3.99-5.829 1.953-2.035 4.234-4.8 5.336-6.467.428-.647.977-1.422 1.222-1.722 1.504-1.846 1.908-2.474 2.539-3.948.208-.485.543-1.184.745-1.553.812-1.487 1.459-2.646 1.922-3.444.946-1.632 1.276-2.62 1.241-3.714-.012-.37.02-.573.101-.653.993-.97 1.899-1.636 2.166-1.59 1.046.177 2.734.809 4.588 1.717 1.356.665 1.648.768 4.157 1.458 3.98 1.095 11.921 1.327 14.665.43 3.278-1.073 6.247-3.326 8.179-6.208.883-1.318 1.124-2.03 1.634-4.836.164-.901.355-1.825.426-2.054.115-.377.114-.455-.008-.826-.115-.346-.122-.508-.043-1.037.36-2.427-.161-5.187-1.394-7.367-.174-.31-.277-.606-.277-.8 0-.177-.161-.691-.378-1.206-.243-.576-.378-1.021-.378-1.245 0-.205-.065-.44-.157-.57-.087-.123-.271-.553-.41-.956-.313-.913-.739-1.661-1.708-3.005-1.522-2.109-1.795-2.573-3.247-5.522-1.634-3.317-1.583-3.238-2.745-4.138-1.63-1.26-3.687-3.529-4.467-4.924l-.304-.544-.043-1.612c-.141-5.411.638-7.223 3.791-8.81 3.113-1.567 5.83-1.425 9.918.52.678.322 1.22.552 1.206.51-.066-.181-1.247-1.487-1.707-1.888-1.552-1.35-2.145-1.619-3.997-1.813a8.451 8.451 0 0 1-1.715-.352c-2.717-.907-9.682.947-10.194 2.713-.174.6-1.023 2.248-1.183 2.3-.444.14-1.656.294-2.322.294h-.764l-.468-.49c-.546-.573-1.273-1.67-2.233-3.373a24.932 24.932 0 0 0-1.435-2.22c-.927-1.238-1.494-2.187-2.693-4.5a77.44 77.44 0 0 0-1.505-2.771c-.312-.531-.727-1.25-.92-1.596-.195-.346-.656-1.008-1.026-1.47-.82-1.024-1.78-2.822-3.1-5.807-.502-1.135-1.138-2.466-1.413-2.958-.75-1.341-1.051-2.647-1.526-6.605-.144-1.201-.283-2.358-.31-2.57-.143-1.166.301-5.085.686-6.039.158-.393.461-1.167.673-1.722 1.172-3.063 2.69-4.753 7.41-8.25 3.346-2.48 9.774-2.26 11.843.404.483.623.522.55.238-.45-.61-2.146-1.105-2.752-2.76-3.384-1.553-.592-1.72-1.325-.456-2.006l.284-.153.859.442c2.493 1.28 3.312 2.708 4.021 7.005l.304 1.838-.248.22c-.136.12-.335.276-.442.346-.177.115-.199.205-.242 1.007-.039.731-.102 1.039-.37 1.805l-.324.924.392-.42c1.905-2.042 2.31-2.861 2.677-5.407.315-2.183-.034-3.194-1.466-4.245-1.204-.884-2.147-3.434-1.625-4.395.552-1.017 2.026-1.237 2.584-.385.08.123.36.457.619.741.26.284.613.691.785.904.522.642 1.462.723 3.14.27 1.197-.323 1.288-.379 2.071-1.274.396-.453.992-1.088 1.324-1.41.333-.324.77-.803.972-1.065.202-.261.403-.488.447-.504.352-.124 3.03-2.9 3.03-3.139 0-.087-.112-.072-.484.068-.817.308-3.003.264-4.766-.095-3.102-.633-3.414-.83-4.2-2.653-.891-2.068-2.25-4.039-3.097-4.492-.337-.18-1.133.271-2.668 1.514-.261.211-.65.12-1.673-.39-.742-.371-.774-.418-.663-.972.144-.717.226-.846.814-1.291 1.662-1.256 3.468-4.31 4.023-6.804.507-2.275.4-3.35-.56-5.59-1.923-4.495-2.322-9.316-1.018-12.33.987-2.282 1.368-2.707 3.049-3.403.995-.412 4.03-1.228 4.566-1.228.159 0-.08-.228-.883-.845-.766-.589-.976-.8-1.238-1.251-.75-1.288-2.615-2.62-3.955-2.822-.302-.046-4.016.578-6.762 1.135-2.186.444-2.95 1.123-3.983 3.542-.99 2.316-.995 3.86-.017 4.97.432.49.423.552-.15 1.064-1.251 1.117-2.313 1.271-3.465.503-.254-.17-1.073-.617-1.82-.995-3.293-1.662-4.137-2.509-5.275-5.287-1.342-3.277-1.506-5.27-.692-8.413.257-.993.436-1.817.397-1.832-.22-.08-2.077 1.051-2.572 1.566-1.042 1.084-2.164 4.327-2.171 6.271a7.006 7.006 0 0 1-.21 1.786c-.3 1.257-.044 2.442.85 3.931.907 1.509 3.034 3.844 3.744 4.11 2.657.995 3.13 2.178 1.468 3.671-.57.512-2.209 1.217-2.6 1.119-.262-.066-1.709.886-2.232 1.468-.617.686-.964 1.962-1.022 3.751-.014.424-.047.807-.075.851-.028.045.006.128.075.186.107.089.125.052.126-.264.006-1.888 1.495-3.94 3.986-5.492.772-.48 1.062-.506 1.911-.166.622.248.635.271.676 1.175l.019.42-.882.042-.882.042-.943.699c-1.125.833-1.409 1.148-1.915 2.128-.475.92-.544.928 1.45-.171 2.27-1.25 3.687-1.454 6.604-.95 3.212.555 5.55 3.254 6.307 7.28.156.831.538 1.829 1.094 2.857 1.034 1.912 1.647 4.265 2.05 7.865.141 1.253-.503 3.054-1.647 4.603l-1.003 1.364c-.565.773-2.8 3.165-4.593 4.919-.626.612-1.84 1.935-2.698 2.94-.858 1.004-1.9 2.221-2.318 2.705-2.176 2.521-5.873 9.39-5.873 10.91 0 .173-.08.729-.179 1.234-.368 1.898-.272 3.363.471 7.177.248 1.27.512 2.798.587 3.395.26 2.057.525 2.922 2.017 6.558 1.203 2.93 2.648 6.021 2.984 6.383.129.139.413.61.631 1.05.219.439.659 1.204.978 1.7.319.497.864 1.474 1.21 2.172.348.698.817 1.541 1.044 1.874.227.333.551.906.72 1.272 1.173 2.54 1.243 2.661 2.396 4.194.174.231.739.874 1.256 1.428 2.041 2.189 2.03 2.166 1.685 3.34l-.167.567.193.23c1.101 1.32.492 2.173-1.364 1.91-2.107-.299-4.964.05-5.886.717-1.009.731-2.002 3.074-1.855 4.38.148 1.32.602 2.866.735 2.505.642-1.737.876-2.308 1.323-3.234.875-1.81 2.227-3.615 3.122-4.168 1.024-.633 4.582.602 6.241 2.165l.549.517.838.1c.984.118.96.107 1.546.705l.456.465-.104.79c-.183 1.402-.258 1.474-1.557 1.494-.733.011-3.766 1.43-4.564 2.134-1.472 1.3-1.992 4.013-1.283 6.693.486 1.834 2.736 4.004 5.521 5.325 1.334.632 1.254.646 1.042-.189-.468-1.846-.443-2.945.086-3.844 1.19-2.02 2.021-2.743 3.736-3.245.592-.173 3.408.564 4.296 1.124 1.81 1.143 3.613 2.852 4.214 3.994.185.351.62 1.016.969 1.478 1.155 1.53 1.446 2.235 1.561 3.78.046.607.172 1.446.285 1.89.686 2.69.688 3.804.01 6.506-.603 2.408-.67 2.585-1.542 4.076-2.512 4.297-2.974 4.77-6.314 6.458-2.42 1.224-2.82 1.314-5.798 1.305-2.153-.006-2.249-.013-2.94-.225a21.705 21.705 0 0 0-1.544-.396c-1.019-.216-1.805-.537-3.775-1.541a47.081 47.081 0 0 0-3.163-1.435c-2.825-1.134-3.587-1.62-5.297-3.38-2.059-2.117-2.482-3.388-2.765-8.303-.327-5.664-1.923-8.974-6.48-13.438-3.085-3.023-4.176-3.798-7.212-5.125-1.987-.869-2.92-1.343-5-2.54a41.62 41.62 0 0 0-3.319-1.703c-2.05-.906-3.229-1.515-3.983-2.056-.74-.53-1.418-.913-5-2.817-5.012-2.665-5.382-2.898-6.98-4.413-.845-.802-1.515-1.346-2.29-1.86-1.066-.708-2.582-1.866-2.814-2.149-.095-.116-.099-.338-.02-1.299l.094-1.158-.487-.963a10.103 10.103 0 0 1-.794-2.118l-.603-2.268c-.519-1.952-.56-2.575-.45-6.949.075-3.025.215-4.09.913-6.925.207-.843.323-1.5.312-1.769-.013-.319.027-.491.157-.675.325-.461.59-1.084 1.024-2.397.517-1.57.513-1.467.096-2.228-.216-.392-.336-.72-.336-.913 0-.417-.153-.442-.757-.12-1.672.891-2.413 2.377-2.531 5.074-.04.924-.125 1.964-.187 2.31l-.113.63.248.441c.473.841.17 1.406-.937 1.74-.814.247-1.939-.476-1.939-1.246 0-.308-.048-.402-.371-.719-.603-.591-1.285-2.777-1.357-4.345-.013-.289-.08-.516-.201-.68-.18-.242-.18-.253-.05-1.13.072-.487.133-1.297.134-1.799 0-.502.045-1.272.097-1.71.052-.44.1-1.838.106-3.109l.01-2.31.317-.881c.175-.485.601-1.732.949-2.772 1.045-3.126 1.73-4.224 3.28-5.265.124-.083.216-.274.28-.579.09-.44.213-.706.865-1.89.168-.303.496-1.035.73-1.625.234-.59.523-1.267.643-1.504.537-1.058.567-1.222.572-3.038.005-1.621.012-1.692.206-2.005.178-.29.392-1.713.235-1.564-.211.2-.992 3.147-.942 3.55.12.953-.16 1.87-.758 2.489l-.519.537-.862-.196c-1.03-.234-1.037-.239-1.172-.993-.077-.43-.176-.682-.36-.912-1.036-1.299-1.148-2.635-.792-9.472.197-3.785.55-5.302 1.857-7.98a44.19 44.19 0 0 0 1.054-2.351c.584-1.45.75-1.768 1.469-2.822 1.091-1.6 2.859-6.02 2.537-6.342-.245-.245-1.741 1.272-1.741 1.765 0 .154-1.233 1.714-1.554 1.966-.768.605-2.216.333-3.187-.597-.454-.435-.481-.663-.088-.732.165-.03.215-.068.147-.11-.305-.193-.288-.387.063-.71.31-.287.35-.372.425-.898.057-.406.233-.913.583-1.685 1.522-3.353 2.199-6.237 2.394-10.203.033-.653.144-1.56.263-2.141.494-2.41-1.204-9.088-3.06-12.041a23.4 23.4 0 0 1-.732-1.265c-.325-.616-.356-.648-.982-.971-.63-.326-.652-.348-.825-.822-.343-.941-.864-1.263-1.678-1.034l-.496.139-.674-.34c-.782-.393-.88-.402-1.577-.157-.628.22-.565.259-1.417-.872-.753-1-.752-.836-.003-1.563l.621-.602h.618c.675.001 1.418.102 2.24.306.668.165.664.17.404-.616-.84-2.54.29-5.159 2.835-6.57l.82-.455-.447-.281c-1.704-1.072-4.427-1.227-6.63-.377-.58.224-2.111 2.194-2.477 3.187l-.225.61-.823.466-.823.466-.376-.166c-.822-.364-1.433-1.197-1.26-1.719.067-.204.052-1.132-.02-1.25-.026-.04-.266.117-.534.349-.567.49-.552.488-1.101.21-.491-.25-.479-.225-.925-1.803-.189-.67-.586-1.827-.882-2.57-.672-1.687-.676-1.981-.037-2.594.66-.633 2.199 1.392 2.521 3.318.146.87.751 2.686.895 2.686.175 0-.206-2.058-.601-3.247-.77-2.32-1.942-3.86-3.974-5.228-1.152-.775-1.18-.782-.943-.228.317.74.589 1.776 1.007 3.838.76 3.743 1.768 5.863 3.71 7.796.662.659.753.782.658.895-.852 1.028-2.71-.337-4.535-3.33-.847-1.39-.98-1.532-2.165-2.313-1.199-.79-1.525-1.092-2.54-2.35-.915-1.133-1.265-1.445-1.982-1.769-2.192-.99-3.475-1.813-3.64-2.337-.438-1.384-.827-1.758-2.417-2.324-1.347-.48-1.578-.645-2.202-1.57-.609-.903-2.226-2.01-3.661-2.508-.18-.062-.466-.356-.932-.96-1.087-1.407-1.49-1.812-1.867-1.876-.658-.111-1.284-.51-2.317-1.474-1.74-1.625-2.624-2.294-3.961-3.001-.91-.481-.911-.483-1.85-1.616-1.151-1.39-1.84-2.039-2.48-2.335-.467-.216-.503-.256-.817-.898-.447-.915-1.449-1.89-1.942-1.89-.34 0-.44.881-.232 2.02l.187 1.025.592.442c.326.243.809.563 1.074.71l.482.27.35-.3c.789-.675.946-.585 1.257.719.136.57.367 1.407.512 1.861l.265.826.74.37c.89.448.84.445.776.05-.049-.308-.031-.34.397-.714.649-.568.678-.552 1.043.553.578 1.75 1.219 2.846 2.016 3.456.512.39.563.383.495-.074-.063-.419.047-.51.727-.607l.302-.043.483.912c1.712 3.238 2.037 3.698 2.797 3.96.322.11.323.11.097-.332-.222-.436-.165-.495.69-.721.821-.218.834-.207.929.789.13 1.36.057 1.202 1.516 3.306.493.71 1.339 1.525 1.46 1.404.02-.02.094-.373.164-.783.17-.99.188-1.041.382-1.041.575 0 .987.532 1.095 1.412.143 1.163.237 1.558.444 1.86.112.164.23.41.263.55.175.741.646 1.23 1.693 1.754.333.167.627.303.652.303.026 0 .022-.293-.008-.65-.07-.85.054-1.306.468-1.72.612-.611.68-.53.886 1.068.38 2.94.522 3.326 1.613 4.389 1.006.98 1.03.991 1.03.5 0-.421.392-1.837.534-1.927.67-.426 1.017-.035 1.097 1.238.058.915.062.93.428 1.47.365.54.368.55.275.945l-.094.398.33.29c.522.463.538.44.538-.799 0-1.33.037-1.423.57-1.42.701.001.617-.484.768 4.425.003.102.27.498.592.882.667.793.675.823.352 1.33-.519.812-1.145 1.246-2.896 2.005-1.855.804-2.727 1.486-3.904 3.051-1.549 2.061-3.478 3.366-7.492 5.065-1.084.458-1.681.762-1.974 1.004-1.574 1.298-2.606 1.922-4.504 2.722-1.186.5-1.971.967-3.147 1.87-1.466 1.126-2.753 1.394-7.589 1.581-2.75.106-2.666.063-3.111 1.6l-.182.626.34 1.227c.483 1.75.563 1.918 1.53 3.203l.87 1.155h.697c.531 0 .777-.04 1.026-.167.18-.092 1-.448 1.823-.792a83.225 83.225 0 0 0 2.227-.964c3.356-1.559 6.546-1.473 6.437.172-.028.431-.024.44.24.508.388.1.414.215.119.52-.33.34-.33.34.074 1.04.409.707.408.658.022 1.162-.174.226-.542.747-.82 1.159-.838 1.244-1.586 1.54-4.157 1.647-1.53.063-2.728.24-5.207.764-1.298.275-1.216.14-.688 1.138.324.613.41.71.806.918l.444.232 1.083-.591c2.875-1.57 4.789-1.982 7.342-1.585 2.647.412 2.613.41 3.365.31 1.139-.15 1.981-.4 2.976-.884 2.921-1.424 4.978-2.121 6.51-2.208l.885-.05 1.636.553c2.02.683 2.496.767 3.73.65a89.274 89.274 0 0 1 2.399-.175c4.777-.285 5.658-.536 8.189-2.332 1.865-1.323 2.68-2.254 2.762-3.15.088-.966.25-1.41.703-1.913.396-.44.399-.447.399-1.037v-.594l.713-.14c1.25-.243 1.255-.243 1.428-.07.652.652.566 2.956-.146 3.885-.224.292-.565.82-.758 1.17-1.576 2.873-5.558 5.697-9.217 6.537a24.35 24.35 0 0 0-1.653.463c-1.257.405-2.192.538-4.226.6l-1.764.053-.413.37c-.228.204-.813.657-1.302 1.008-1.3.935-1.728 1.324-2.148 1.957-.244.365-.47.604-.637.674-.537.222-4.6 4.704-5.672 6.255-.272.393-.798 1.14-1.17 1.66-.371.518-1.408 1.982-2.303 3.253-6.476 9.191-8.728 11.343-15.793 15.09-1.04.552-2.402 1.346-3.028 1.766-1.425.954-1.993 1.245-3.103 1.587-.485.15-1.43.464-2.1.698-2.817.988-4.143.513-3.923-1.404.054-.472-.372-2.228-.778-3.207-.65-1.565-.962-1.9-3.11-3.336-3.837-2.564-7.211-5.783-8.319-7.935-.135-.263-.45-.792-.7-1.176-.922-1.42-1.619-2.992-2.818-6.356-1.674-4.697-1.606-4.6-3.338-4.795a16.71 16.71 0 0 1-1.638-.294c-1.41-.336-2.459-.408-4.935-.339l-2.22.062-.932.893a31.021 31.021 0 0 1-1.707 1.512c-1 .8-.992.948.194 3.432l.544 1.14-.205.449c-.377.823-1.173.052-2.596-2.512-.382-.687-.262-.694-1.115.065-2.12 1.887-4.291 3.386-6.518 4.5-1.732.867-3.404 2.167-5.607 4.36l-1.645 1.637-.762 1.47a37.83 37.83 0 0 0-1.203 2.562c-.852 2.1-2.135 4.055-4.975 7.579-1.143 1.418-1.408 2.107-1.786 4.638-.256 1.715-.258 1.804-.046 3.168.091.592.243 1.644.337 2.336.2 1.47.408 2.575.503 2.675.036.039.534-.352 1.105-.868 2.298-2.078 3.181-2.523 3.821-1.921.379.355.292.484-1.04 1.546-1.577 1.258-2.806 2.488-3.334 3.34l-.408.657.348 1.821c.19 1.002.517 2.8.725 3.998.438 2.514.378 2.352.677 1.838.52-.896.919-1.341 3.107-3.472 1.431-1.393 2.708-2.402 4.249-3.359.525-.326.986-.624 1.025-.663.04-.04-.153-.318-.426-.62-.686-.756-1.375-1.786-2.289-3.418-.427-.762-.905-1.6-1.063-1.864l-.287-.477.214-1.454c.243-1.65.326-1.966.788-2.992.182-.404.674-1.65 1.093-2.769 1.421-3.791 1.607-4.173 2.564-5.265.44-.502.783-.985.898-1.264.167-.403.243-.481.699-.722 2.736-1.447 6.46-4.55 8.123-6.765a31.35 31.35 0 0 1 1.375-1.629c1.183-1.315 1.705-1.972 2.092-2.633.17-.291.457-.64.636-.773.18-.134.878-.768 1.551-1.41l1.226-1.167.66.045c.51.035.849.123 1.49.386l1.644.676c.754.31 1.303.45 3.16.807 2.259.432 2.794 1.038 3.037 3.434.133 1.314.77 4.288 1.3 6.057.11.37.26 1.13.332 1.692.17 1.31.472 2.343.89 3.046.183.308.692 1.333 1.133 2.278.836 1.794 1.4 2.839 1.83 3.386.173.22.279.476.33.798.061.395.21.681.895 1.733.452.694 1.137 1.752 1.523 2.353 2.35 3.657 2.2 3.616 3.441.924 2.038-4.42 2.644-4.993 4.011-3.793.844.741.812 1.203-.22 3.197-.457.882-.858 1.736-.891 1.897a2.736 2.736 0 0 1-.285.672c-.451.76-.451.76-.782 5.27-.09 1.227-.085 1.408.043 1.817.131.415.132.496.016.943-.265 1.017-.143 2.14.425 3.912.384 1.2.261 1.11 1.842 1.36 7.726 1.23 11.09 1.103 17.547-.66 1.543-.421 2.385-.256 2.804.55.403.775.144 1.164-1.103 1.66-3.401 1.355-4.662 1.638-8.456 1.9-1.04.072-2.362.168-2.94.214-.838.066-1.189.058-1.741-.04-.381-.068-1.496-.162-2.478-.209-4.839-.231-14.153-1.828-17.093-2.93-1.652-.62-2.575-.913-3.1-.982l-.409-.054-1.3.987c-2.756 2.092-2.921 2.26-4.216 4.298-.495.779-1.128 1.688-1.407 2.02-.61.726-.603.64-.181 2.48.392 1.712.152 1.486 2.24 2.12 1.984.603 1.95.584 1.815 1.033-.171.57-.706.592-3.053.123-.315-.063-.313.026.06 2.125.514 2.891.56 3.284.586 5.037.017 1.097.09 2.19.21 3.132.236 1.85.154 3.74-.253 5.806-.46 2.335-.658 7.379-.374 9.55.235 1.801.28 1.924 1.289 3.465 1.9 2.906 3.562 5.846 4.115 7.282.175.454.636 1.496 1.025 2.314l.706 1.488.053-1.95c.06-2.204.173-2.819.707-3.835l.302-.575-.299-.417c-.59-.82-.832-1.786-.933-3.716-.104-1.974-.152-2.182-.836-3.57-.53-1.076-1.7-2.963-2.33-3.76-.208-.262-.233-.154.345-1.465.188-.425.528-1.389.755-2.141l.414-1.368.304-3.402c.495-5.526.433-6.973-.419-9.827-.57-1.912-.662-3.17-.293-4.012.178-.405 1.393-1.7 1.596-1.7.035 0 .197-.198.36-.44.444-.664.927-1.176 1.445-1.533l.465-.32.711.148c1 .21.993.2 1.64 2.842.647 2.64 1.265 3.769 3.965 7.24 3.2 4.118 5.99 6.266 9.804 7.555.896.303 1.86.677 2.142.831 1.5.823 4.868 1.537 6.21 1.316.285-.047 1.292-.124 2.239-.171 1.978-.099 1.954-.094 2.187-.422.22-.31.316-.308 1.216.02.64.233.77.255 1.037.176 1.316-.391 5.766-1.953 6.628-2.327.747-.324 1.258-.49 1.699-.551.922-.128 1.49-.312 2.057-.665.866-.54 1.714-.977 3.192-1.647 2.177-.986 3.784-1.834 4.62-2.437.415-.3 1.434-.892 2.263-1.316 1.32-.674 1.588-.846 2.154-1.387l.646-.617.735-.098.735-.099.282.332c.946 1.114.702 1.627-1.482 3.114-.531.362-1.148.838-1.37 1.06a4.106 4.106 0 0 1-1.008.689c-1.519.721-3.345 1.977-4.725 3.25-.71.654-.813.718-1.512.943-1.316.424-2.83 1.046-3.498 1.438-.427.25-.852.423-1.243.505-.326.068-1.395.432-2.375.807-2.224.853-3.476 1.28-4.553 1.553-.462.117-1.388.383-2.058.59-2.229.693-3.992.846-5.241.457-1.126-.351-1.152-.455.667 2.604.572.961 1.25 2.166 1.507 2.677.578 1.153 1.21 2.226 2.912 4.935 1.49 2.371 2.395 3.92 3.016 5.158.66 1.314 3.217 5.281 4.277 6.635 5.361 6.845 12.137 12.406 17.387 14.272 1.118.397 2.319.933 3.276 1.46.208.116.948.493 1.645.84.696.346 1.471.767 1.722.936 1.616 1.09 10.949 4.404 12.402 4.404.181 0 .84-.962 1.324-1.932.172-.346.548-.95.834-1.344.286-.392.685-.96.886-1.26.201-.3.973-1.165 1.716-1.922 2.443-2.491 2.736-2.795 2.736-2.837 0-.112-1.895-2.058-3.317-3.407-1.913-1.813-1.893-1.782-1.68-2.639.445-1.785 3.03-1.077 4.96 1.36.61.769 1.194 1.276 2.753 2.388 1.49 1.063 1.61 1.193 1.729 1.88l.099.576-1.537 1.478c-2.722 2.616-4.552 4.543-5.021 5.285-2.672 4.225-4.537 8.293-5.756 12.552-.89 3.112-.621 11 .468 13.73.226.565.804 2.116 1.286 3.447 1.456 4.019 2.147 5.64 3.097 7.262a53.61 53.61 0 0 1 1.256 2.38c.89 1.785 1.648 3.1 2.54 4.41.33.485.766 1.166.967 1.512a29.442 29.442 0 0 0 4.204 5.582 135.413 135.413 0 0 1 3.54 3.867c.16.185.665.808 1.123 1.386.472.596 1.565 1.775 2.529 2.73.933.923 2.063 2.095 2.51 2.603.987 1.124 5.274 5.319 6.015 5.887.294.225.686.556.87.736 1.027.999 3.838 2.942 4.508 3.116.973.253 1.985 1.784 2.264 3.427.094.55.373 1.75.621 2.664.985 3.631 1.12 4.312 1.301 6.545.112 1.38.235 2.034.618 3.295.792 2.608.741 4.359-.165 5.677-.34.494-.497.958-1.222 3.635-.714 2.634-.735 2.783-.831 5.88-.148 4.735-.157 4.409.169 5.98l.29 1.404-.197.21c-.31.33-1.423.867-2.029.978l-.548.102-.6 1.187c-.33.654-.808 1.508-1.062 1.9-.547.84-.625.76.962.964 1.295.166 2.088.13 2.861-.13.67-.226.682-.22.906.6l.192.7-.22.188c-.56.483-1.61.596-3.426.37-2.806-.35-2.921-.299-3.546 1.592-.22.668-.565 1.56-.765 1.981-.41.862-.557 1.657-.713 3.857a44.574 44.574 0 0 1-.195 2.05c-.14 1.09-.253 1.02 1.072.678zm11.504-33.887c-.347-.246-.466-.75-.497-2.105a73.526 73.526 0 0 0-.117-2.615c-.087-1.328-.044-2.912.16-5.784.164-2.333.186-3.189.089-3.612-.06-.26-.094-1.223-.09-2.526.008-3.296-.114-3.624-2.29-6.125-1.79-2.056-2.131-3.437-.934-3.785.666-.193.696-.174 1.084.72a13.82 13.82 0 0 0 3.15 4.475l.846.804-.099 1.203c-.076.93-.075 1.926.006 4.394.112 3.409.06 4.808-.226 6.195-.23 1.104-.204 4.103.052 6.158l.2 1.603-.171.385c-.254.574-.808.866-1.163.615zm25.906-111.998c-.583-.47-1.429-1.403-1.632-1.799-.333-.65.119-4.358.653-5.36 1.372-2.575 5.95-3.037 5.95-.601 0 .449-1.161.657-1.552.278l-.288-.28-.68.148c-1.237.267-1.226.261-1.509.756-.747 1.307-1.045 3.194-.666 4.227 1.007 2.745.918 3.595-.276 2.631zM57.134 176.152l.311-1.412c.249-1.122.264-1.304.333-3.906.105-3.933.17-4.154 1.138-3.858.768.234.75.202.596 1.058-.128.706-.186 1.32-.393 4.169-.05.683-.147 1.553-.216 1.932a9.567 9.567 0 0 0-.112 1.528c.007.462.01.884.004.937-.01.112-.697.533-.868.533-.487-.192-.591-.651-.793-.98zm154.315.142c-.722-.755-.705-.7-.465-1.483.58-1.893 1.703-3.102 3.078-3.312l.674-.103.408.25c.621.382.575.469-.662 1.245-1.384.869-1.533 1.11-1.533 2.478 0 1.644-.512 1.96-1.5.925zM35.255 116.261c-.805-.966-.805-.966 1.112-2.288 3.32-2.291 4.199-3.033 5.293-4.47 1.423-1.87 1.78-2.14 2.289-1.74.75.59-1.116 3.187-3.689 5.132a44.188 44.188 0 0 0-1.816 1.477c-1.977 1.707-2.89 2.248-3.19 1.89zm171.626-34.137c-.932-.247-.422-3.649.836-5.576 1.793-2.748 4.26-3.993 6.449-3.256l.462.155-.013.392c-.007.216-.064.499-.127.63-.123.257-.005.226-1.802.476-1.442.2-1.98.568-3.343 2.277-.964 1.21-1.212 2.061-1.221 4.186-.002.447-.036.664-.108.686-.254.08-.884.096-1.133.03zm1.041-.845c-.023-.057-.042-.01-.042.105 0 .116.02.163.042.105a.324.324 0 0 0 0-.21zm-115.79-2.52c-.93-.561-.93-.745-.008-2.699.569-1.204.544-1.184 1.368-1.088.572.067.612.085.636.288.026.23-.397 1.48-.612 1.809-.184.28-.162.367.18.717.364.373.352.399-.423.904-.632.412-.58.408-1.141.07zm17.935-5.755c-.6-.333-.626-.41-.352-1.054.328-.771.322-.768 1.983-1.027 1.809-.281 1.776-.248.848-.872l-.765-.514-1.264.435c-1.431.492-1.359.506-1.592-.31-.312-1.089-.381-1.01 1.261-1.425 1.721-.435 2.26-.77 3.918-2.441 2.426-2.445 3.34-2.88 6.665-3.18.808-.074 1.569-.155 1.69-.181.19-.041.328.055 1.002.7.919.881.92.923.065 1.238-1.871.69-2.474 1.21-3.285 2.84-1.046 2.1-2.431 3.348-4.58 4.13a17.6 17.6 0 0 0-1.804.79c-.453.237-.929.432-1.057.432-.254 0-1.015.233-1.645.503-.506.217-.59.212-1.088-.064zm6.522-3.94c.922-.709 1.996-1.928 1.996-2.265 0-.108-.193-.157-.955-.241-.439-.049-.528-.093-.813-.4l-.32-.347-.417.374c-.532.478-.527.54.098 1.056.572.474.618.626.364 1.23l-.132.315h-1.443l-.261-.42c-.31-.498-.252-.487-.753-.147-.525.356-.551.32.538.724.52.193 1.001.387 1.07.432.25.16.526.076 1.028-.31zm2.993-4.048c.457-.652.456-.653-.524-.376-.935.264-.934.263-.416.658.48.367.486.366.94-.282zm-11.718 257.945c.136-.22-1.223-3.038-1.586-3.286-.886-.608-1.162-3.514-.536-5.651.166-.57 1.096-1.567 2.4-2.574 1.31-1.013 3.406-1.264 6.454-.77 1.433.23 3.965.327 4.032.152.026-.066-.102-.553-.284-1.082-.756-2.2-1.376-4.984-1.385-6.211-.016-2.332 1.594-5.65 3.892-8.021 2.57-2.653 2.603-2.701 2.066-3.016-1.041-.61-.945-.992 1.422-5.635 1.634-3.206 3.123-6.313 3.583-7.473.367-.926.451-1.036.969-1.258.444-.192.54-.152.812.335.3.538.304.521-.416 1.657-.857 1.349-1.388 2.37-2.35 4.515-.446.992-1.074 2.39-1.397 3.105-.936 2.078-1.898 4.536-1.773 4.536.026 0 .278-.255.56-.567a67.88 67.88 0 0 1 1.239-1.323 34.76 34.76 0 0 0 1.43-1.603c1.829-2.208 3.572-4.188 4.57-5.19 3.803-3.824 7.985-8.545 9.297-10.498.284-.422.728-1.053.986-1.402.559-.753.818-1.32.892-1.948l.054-.461-1.795-1.026a73.252 73.252 0 0 0-3.265-1.75c-2.467-1.213-3.023-1.681-4.419-3.72l-.378-.552.093-.54c.051-.296.14-1.144.198-1.885.169-2.157 1.135-3.873 2.826-5.018.958-.649 1.208-.868 1.599-1.408.197-.273.542-.65.766-.84.224-.188.407-.398.407-.467 0-.319-1.22-4.368-1.565-5.194-2.495-5.975-2.481-14.793.034-20.96.673-1.65.873-2.269.75-2.312-.055-.02-.573-.135-1.15-.255-1.277-.265-2.065-.521-2.922-.95-.733-.368-1.565-.66-2.65-.932a9.968 9.968 0 0 1-1.47-.523c-.4-.186-1.635-.734-2.744-1.217a123.85 123.85 0 0 1-3.253-1.473l-1.237-.595-.332.23c-.182.127-.785.596-1.338 1.042-4.155 3.353-3.965 3.174-5.342 5.01a49.308 49.308 0 0 1-1.368 1.757c-.98 1.145-1.547 2.344-2.587 5.467a313.067 313.067 0 0 1-.993 2.94c-.52 1.49-.889 5.708-.627 7.18.553 3.121 3.602 10.047 5.323 12.095a33.172 33.172 0 0 1 1.462 1.932c.435.624 1.139 1.606 1.563 2.184.714.97 1.134 1.662 2.296 3.78.403.734.461.913.734 2.267.274 1.365 1.07 4.635 1.164 4.788.055.09.43 3.666.589 5.613.168 2.069.157 3.36-.045 5.4-.554 5.595-1.052 7.463-2.796 10.488-.28.485-1.141 2.167-1.915 3.738l-1.407 2.855-1.204 1.596c-.67.886-1.502 2.112-1.873 2.757-.665 1.157-1.12 1.694-1.69 1.997-.14.074-.767.72-1.395 1.437-.628.716-1.393 1.525-1.7 1.797-.308.273-.892.915-1.3 1.427-.524.66-1.075 1.22-1.887 1.916-1.225 1.05-3.096 2.776-3.787 3.49l-.42.434.199.163c.248.204.37.203.977-.006.843-.29 1.033-.207.87.381-.101.369-.651.93-1.193 1.217l-.384.204-.862-.283-.863-.283-.538.579c-1.328 1.428-3.794 5.102-4.016 5.983-.121.482.333.707 1.585.783 2.077.128 4.973.407 6.41.62 2.083.308 3.85.447 3.934.31zM68.61 202.855c0-.22-.096-1.136-.212-2.037-.364-2.827-.457-9.16-.146-9.97.041-.11.012-.125-.152-.08-.534.144-1.657.307-2.722.394-1.413.116-1.204-.119-1.48 1.657-.363 2.334-.494 3.658-.494 4.986v1.227l.375.293c.207.16 1.022.874 1.812 1.586 1.268 1.141 2.777 2.337 2.957 2.341.035.001.063-.177.062-.397zm-.28-7.6c-.022-.059-.042-.011-.042.104 0 .116.02.163.043.105a.324.324 0 0 0 0-.21zm131.827-6.258c.75-1.61 1.12-1.947 3.425-3.123 1.456-.743 1.464-.75 1.098-1.01-.878-.625-1.923-.85-2.558-.548-.766.363-2.414 3.467-2.47 4.653-.047.984.057.99.505.028zm-83.21-22.867c.084-.092.134-.167.11-.167-.023 0-.11.075-.194.168-.083.092-.133.167-.11.167.024 0 .11-.075.194-.167zm45.011-12.493c-.018-.08-.281-1.149-.584-2.373-.99-4.009-1.006-4.876-.119-6.641.18-.356.483-1.209.675-1.895.393-1.407.652-2.032 1.145-2.761.442-.654.512-.8 1-2.1l.41-1.091v-1.512c0-2.248-.11-2.567-1.89-5.455-1.137-1.843-1.078-1.663-.79-2.414.467-1.224 1.097-1.361 2.89-.63.97.394 1.685.582 1.983.52.088-.019.424-.097.748-.174.491-.118.842-.132 2.141-.085.952.034 1.717.023 1.974-.03 1.96-.396 2.722-.659 3.39-1.168.277-.211.287-.212.538-.068l.256.146.7-.48c.386-.265.701-.494.701-.51 0-.017-.604-.005-1.342.027-.902.039-1.722.021-2.497-.053l-1.154-.112-1.388-.664c-2.103-1.006-2.27-1.2-2.454-2.853l-.099-.88.316-.386.316-.385-.364-.094c-2.839-.731-3.175-1.271-3.239-5.207-.05-3.05-.155-2.763 1.283-3.5 2.23-1.143 3.273-1.346 5.646-1.098.792.082.787.068-.378-.958a35.302 35.302 0 0 1-1.533-1.428c-.443-.455-.749-.666-1.627-1.126l-1.08-.567-1.19-.04c-1.942-.066-3.512.176-5.612.864-1.755.575-2.715.408-3.743-.654l-.276-.285.129-.984c.07-.54.129-1.102.129-1.248 0-.338.493-.825 1.932-1.909 1.382-1.04 1.82-1.422 2.225-1.937 1.249-1.59 6.189-2.878 8.152-2.125.512.197-.408-1.223-1.625-2.507-.496-.522-.999-1.076-1.118-1.23-.192-.248-.294-.294-.881-.4-1.803-.327-1.908-.33-3.253-.077l-1.245.233-.321-.313c-.292-.286-.352-.31-.645-.26-.547.092-.602-.009-.667-1.213l-.056-1.05.41-.287c.225-.158.674-.538.997-.845.666-.632 1.407-1.038 4.032-2.206 2.101-.935 2.189-.962 4.028-1.2.836-.11-.65-.476-2.012-.498-.509-.008-1.029-.045-1.156-.081-.285-.082-2.311.913-3.59 1.763-2.457 1.632-4.502 1.32-4.166-.637.166-.968.291-1.142 2.082-2.897.742-.728 1.484-1.545 1.754-1.932 2.37-3.397 2.159-3.02 3.417-6.08.03-.07-.1-.026-.322.109-.636.39-1.49.805-2.887 1.406-.87.374-1.607.758-2.08 1.085-1.558 1.076-3.004 1.503-3.804 1.124-.477-.227-1.136-1.397-.966-1.714.288-.538 1.52-1.34 2.447-1.594.455-.125.535-.184.937-.695.241-.307.83-.986 1.308-1.508.917-1.001 1.267-1.52 1.492-2.21.075-.231.243-.534.373-.672.13-.139.339-.536.463-.882.763-2.132 3.142-4.952 4.181-4.957 1.233-.006-.153-.551-1.71-.672a71.257 71.257 0 0 1-2.225-.212l-1.008-.117-.42.279c-.925.612-2.117 2.006-2.756 3.224-.564 1.074-2.887 1.459-2.863.474.021-.854.222-3.014.347-3.722.122-.694.126-.964.038-2.226-.055-.79-.1-1.68-.1-1.979l.001-.543-.409.403-.408.403-.045.77c-.062 1.076-.265 1.652-1.408 4.003-.605 1.246-1.085 2.355-1.215 2.81-.244.854-.22.829-.985 1.016-1.374.337-1.256-.322.818-4.582 1.104-2.266 1.396-2.94 1.274-2.94-.024 0-.463.284-.974.63-1.728 1.167-3.224 1.78-4.552 1.867-.41.027-.747.07-.747.097 0 .027.166.39.37.807 1.81 3.715 1.791 3.658 2.233 6.793.142 1.01.333 2.212.424 2.672.216 1.097.215 2.626-.003 4.437-.178 1.48-.214 2.306-.095 2.232.04-.024.093-.433.117-.908.031-.607.14-1.235.365-2.122.31-1.216.32-1.305.307-2.562-.03-2.575.505-3.707 1.152-2.44.559 1.096.546 3.08-.036 5.38-.25.99-.42 1.874-.466 2.436-.228 2.767-.642 3.891-1.619 4.397l-.463.24-.136.873c-.101.652-.214 1.033-.446 1.5-.37.748-.34.808.238.494.65-.353 1.292-.974 1.473-1.426.21-.524 2.789-2.638 3.081-2.526.346.133.513.809.525 2.118.006.694.037 1.346.07 1.449.043.135-.02.32-.233.67-.23.38-.303.609-.346 1.071-.16 1.734-.436 2.844-1.01 4.074a18.808 18.808 0 0 0-.8 2.142c-.415 1.398-.7 1.991-1.555 3.248-.763 1.122-.993 1.56-1.308 2.49-.13.383-.492 1.177-.806 1.763-.751 1.405-.714 1.31-1.06 2.75-.642 2.677-.958 4.827-1.038 7.072-.058 1.588.016 1.831.266.882.172-.605.576-1.106.885-1.598.374-.715 1.196-1.477 2.1-1.947.526-.273.877-.537 1.342-1.007.346-.351.789-.709.983-.795l.353-.156.676.57c.372.314.68.63.685.704.055.8-.059 1.417-.609 3.282-1.106 3.754-1.302 4.729-1.415 7.057-.1 2.048-.331 2.782-1.66 5.255-.175.326-.483 1.1-.684 1.721-.201.621-.497 1.39-.658 1.71l-.291.582.197.151c.108.084.221.153.251.154.253.009.075.332-.523.947-.916.941-1.122 1.395-1.793 3.933-.866 3.28-.944 3.452-1.682 3.734-.36.137-.378.136-.62-.036a1.637 1.637 0 0 0-.284-.177c-.019 0-.032 1.06-.029 2.357.004 1.88.026 2.309.104 2.118.057-.141.403-.47.84-.798a33.29 33.29 0 0 0 1.65-1.362c.631-.558.978-.807 1.134-.814l1.184-.063.96-.052.125-.378c.279-.838 2.263-2.183 2.858-1.937.526.218.565.471.229 1.499-.662 2.02-.677 2.448-.129 3.724.512 1.193.555 1.42.382 2.004-.186.625-.171.805.117 1.414.604 1.278 2.24 2.847 3.868 3.71.926.492 1.14.652 2.135 1.601.607.58 1.405 1.285 1.772 1.566.366.28.778.628.913.772.278.294.384.33.334.114zm-2.559-4.29c-1-.634-1.564-2.182-2.68-7.364a94.248 94.248 0 0 0-.836-3.57c-.93-3.446-.646-5.676.638-4.998.827.437.837.452.715 1.042-.281 1.363.019 3.236 1.214 7.568.35 1.27.747 2.82.882 3.444.209.961.336 1.321.839 2.364.5 1.04.577 1.258.499 1.405-.22.41-.728.454-1.27.11zm2.134-9.307c-.682-.162-.695-.25-.138-.928 1.085-1.32.98-2.685-.453-5.918l-.55-1.24.25-.445c.297-.526.426-.564 1.026-.3l.443.193.481 1.385c.265.762.629 1.725.81 2.141.632 1.457.315 4.04-.617 5.019-.253.265-.463.28-1.252.093zm7.026-14.894c-1.464-.316-2.229-.88-4.414-3.25-1.096-1.19-1.1-1.2-.562-1.538.83-.522 1.357-.395 2.131.517 1.043 1.228 1.856 1.95 2.971 2.645 1.134.705 1.254.833 1.351 1.438l.057.353-.41-.006c-.225-.003-.731-.075-1.124-.16zm-6.009-15.583c-.182-.626-.15-.712.383-1.032.82-.491 1.2-.564 2.965-.564h1.58l.46.504c.919 1.01.876 1.293-.176 1.182-1.643-.174-2.142-.157-3.342.112-1.665.374-1.703.37-1.87-.202zm-13.573-.14c-.4-.432-.457-1.174-.148-1.89.097-.223.62-1.54 1.165-2.925 2.655-6.765 5.162-10.268 6.413-8.962.285.298.29.268-.125.746-2.429 2.798-5.301 8.7-5.819 11.957-.164 1.031-.125.956-.637 1.216-.518.262-.468.27-.85-.142zm11.561-12.342c-.816-1.108-.396-1.507 2.033-1.93 3.753-.652 5.4-.435 5.4.712 0 .72-.005.724-1.351.724-2.106 0-3.725.252-4.83.753-.765.347-.813.337-1.252-.259zm-4.824-22.22c-.439-.611-.444-.565.255-2.111 1.927-4.264 2.714-5.478 3.812-5.889 1.619-.604 1.854-.114.556 1.159-1.246 1.22-2.717 4.195-3.115 6.3-.1.532-.175.638-.601.855-.462.236-.532.211-.907-.314zm-11.58 61.747c.097-.214-.082-.546-.295-.546-.145 0-.393.27-.393.429 0 .34.544.433.687.117zm.628-1.354c.13-.196.131-.242.02-.44-.24-.43-.748-.3-.748.192 0 .494.464.652.728.248zm.359-2.01c.191-.512.217-.757.088-.836-.191-.118-.622 1.156-.45 1.328.098.097.186-.023.362-.492zM89.249 22.874c-.138-.138.141-.362.57-.458.562-.126.586-.027-.189-.807-.494-.497-.744-.837-1.035-1.405l-.383-.75-.868-.234c-.478-.128-.908-.273-.956-.32-.2-.202-.212-.063-.025.31.11.22.305.72.433 1.113.408 1.25.413 1.256 1.848 2.29.35.252.783.44.605.261zm-4.415-4.33c.294-.193.55-.362.568-.377.065-.049-1.991-1.873-2.113-1.874-.239-.003.016 1.83.318 2.286.282.426.537.419 1.227-.034zm-3.087-2.725c.143-.419.121-.535-.1-.536-.31-.002-1.041-.434-1.872-1.107-1.401-1.136-1.578-1.215-1.248-.559.265.529.488.738.897.84.399.101.445.148.522.525.043.206.203.363.801.779.844.587.82.586 1 .058z"/></svg>